<?xml version="1.0" encoding="UTF-8" standalone="no"?>
<!-- Created with Inkscape (http://www.inkscape.org/) -->

<svg
   xmlns:ns0="http://www.iki.fi/pav/software/textext/"
   xmlns:dc="http://purl.org/dc/elements/1.1/"
   xmlns:cc="http://creativecommons.org/ns#"
   xmlns:rdf="http://www.w3.org/1999/02/22-rdf-syntax-ns#"
   xmlns:svg="http://www.w3.org/2000/svg"
   xmlns="http://www.w3.org/2000/svg"
   xmlns:xlink="http://www.w3.org/1999/xlink"
   xmlns:sodipodi="http://sodipodi.sourceforge.net/DTD/sodipodi-0.dtd"
   xmlns:inkscape="http://www.inkscape.org/namespaces/inkscape"
   width="143.5892mm"
   height="85.70443mm"
   viewBox="0 0 508.78064 303.67711"
   id="svg22483"
   version="1.1"
   inkscape:version="0.91 r13725"
   sodipodi:docname="approx-n-representability.svg">
  <sodipodi:namedview
     id="base"
     pagecolor="#ffffff"
     bordercolor="#666666"
     borderopacity="1.0"
     inkscape:pageopacity="0.0"
     inkscape:pageshadow="2"
     inkscape:zoom="1.5727392"
     inkscape:cx="200.52252"
     inkscape:cy="85.103227"
     inkscape:document-units="px"
     inkscape:current-layer="layer1"
     showgrid="false"
     inkscape:window-width="1920"
     inkscape:window-height="1000"
     inkscape:window-x="0"
     inkscape:window-y="27"
     inkscape:window-maximized="1"
     fit-margin-top="0"
     fit-margin-left="0"
     fit-margin-right="0"
     fit-margin-bottom="0" />
  <defs
     id="defs22485" />
  <metadata
     id="metadata22488">
    <rdf:RDF>
      <cc:Work
         rdf:about="">
        <dc:format>image/svg+xml</dc:format>
        <dc:type
           rdf:resource="http://purl.org/dc/dcmitype/StillImage" />
        <dc:title />
      </cc:Work>
    </rdf:RDF>
  </metadata>
  <g
     inkscape:label="Layer 1"
     inkscape:groupmode="layer"
     id="layer1"
     transform="translate(-41.771406,-359.16324)">
    <ellipse
       style="fill:#aeaeae;fill-rule:evenodd;stroke:black;stroke-width:1.25004613;stroke-linecap:butt;stroke-linejoin:miter;stroke-miterlimit:4;stroke-dasharray:none;stroke-opacity:1;fill-opacity:0.1254902"
       id="path23031"
       cx="314.90512"
       cy="521.0495"
       rx="235.02188"
       ry="141.16582" />
    <ellipse
       style="fill:#232323;fill-rule:evenodd;stroke:black;stroke-width:1.1535666;stroke-linecap:butt;stroke-linejoin:miter;stroke-miterlimit:4;stroke-dasharray:none;stroke-opacity:1;fill-opacity:0.1254902"
       id="path23033"
       cx="347.22305"
       cy="561.55243"
       rx="178.70769"
       ry="87.890297" />
    <g
       transform="matrix(2.6890756,0,0,2.6890756,14.317845,248.2232)"
       ns0:text="$N$-representable"
       ns0:preamble="/home/ward/Documents/PhD/preamble.tex"
       id="g23042">
      <defs
         id="defs23044">
        <g
           id="g23046">
          <symbol
             overflow="visible"
             id="textext-defae9f2-0"
             style="overflow:visible">
            <path
               style="stroke:none"
               d=""
               id="path23049"
               inkscape:connector-curvature="0" />
          </symbol>
          <symbol
             overflow="visible"
             id="textext-defae9f2-1"
             style="overflow:visible">
            <path
               style="stroke:none"
               d="M 7.53125,-5.765625 C 7.640625,-6.15625 7.8125,-6.46875 8.609375,-6.5 c 0.046875,0 0.171875,-0.015625 0.171875,-0.203125 0,0 0,-0.109375 -0.125,-0.109375 -0.328125,0 -0.6875,0.03125 -1.015625,0.03125 -0.328125,0 -0.6875,-0.03125 -1.015625,-0.03125 -0.0625,0 -0.171875,0 -0.171875,0.203125 C 6.453125,-6.5 6.546875,-6.5 6.625,-6.5 c 0.578125,0.015625 0.6875,0.21875 0.6875,0.4375 0,0.03125 -0.03125,0.1875 -0.03125,0.203125 l -1.125,4.4375 L 3.953125,-6.625 C 3.875,-6.796875 3.875,-6.8125 3.640625,-6.8125 l -1.34375,0 c -0.1875,0 -0.28125,0 -0.28125,0.203125 0,0.109375 0.09375,0.109375 0.28125,0.109375 0.046875,0 0.671875,0 0.671875,0.09375 L 1.640625,-1.0625 c -0.109375,0.40625 -0.28125,0.71875 -1.078125,0.75 -0.0625,0 -0.171875,0.015625 -0.171875,0.203125 0,0.0625 0.046875,0.109375 0.125,0.109375 0.328125,0 0.671875,-0.03125 1,-0.03125 C 1.859375,-0.03125 2.21875,0 2.546875,0 2.59375,0 2.71875,0 2.71875,-0.203125 2.71875,-0.296875 2.625,-0.3125 2.515625,-0.3125 1.9375,-0.328125 1.859375,-0.546875 1.859375,-0.75 c 0,-0.0625 0.015625,-0.125 0.046875,-0.234375 l 1.3125,-5.25 C 3.265625,-6.1875 3.265625,-6.15625 3.3125,-6.0625 l 2.484375,5.875 C 5.859375,-0.015625 5.890625,0 5.984375,0 6.09375,0 6.09375,-0.03125 6.140625,-0.203125 Z m 0,0"
               id="path23052"
               inkscape:connector-curvature="0" />
          </symbol>
          <symbol
             overflow="visible"
             id="textext-defae9f2-2"
             style="overflow:visible">
            <path
               style="stroke:none"
               d="M 0.5,-6.015625 2.1875,-3.484375 0.5,-0.953125 Z M 0.796875,-0.5 2.5,-3.03125 4.1875,-0.5 Z m 2,-2.984375 1.6875,-2.53125 0,5.0625 z M 2.5,-3.921875 l -1.703125,-2.53125 3.390625,0 z M 0,0 l 4.984375,0 0,-6.953125 -4.984375,0 z m 0,0"
               id="path23055"
               inkscape:connector-curvature="0" />
          </symbol>
          <symbol
             overflow="visible"
             id="textext-defae9f2-3"
             style="overflow:visible">
            <path
               style="stroke:none"
               d="M 2.734375,-2.359375 C 2.859375,-2.359375 3,-2.609375 3,-2.71875 3,-2.796875 2.953125,-2.890625 2.859375,-2.890625 l -2.28125,0 c -0.125,0 -0.25,0.203125 -0.25,0.375 0,0.078125 0.0625,0.15625 0.15625,0.15625 z m 0,0"
               id="path23058"
               inkscape:connector-curvature="0" />
          </symbol>
          <symbol
             overflow="visible"
             id="textext-defae9f2-4"
             style="overflow:visible">
            <path
               style="stroke:none"
               d="m 1.671875,-3.328125 0,-0.90625 c 0,-0.078125 -0.015625,-0.109375 -0.0625,-0.109375 -0.21875,0.046875 -0.578125,0.0625 -0.8125,0.03125 L 0.78125,-4.28125 c 0.0625,0.4375 0.09375,1.1875 0.09375,1.9375 l 0,0.546875 C 0.875,-1.046875 0.859375,-0.53125 0.78125,0 L 0.796875,0.03125 C 0.921875,0.015625 1.140625,0 1.265625,0 c 0.125,0 0.34375,0.015625 0.46875,0.03125 L 1.75,0 C 1.6875,-0.5625 1.671875,-1.03125 1.671875,-1.796875 l 0,-0.515625 c 0,-0.421875 0.125,-0.65625 0.328125,-0.984375 0.15625,-0.21875 0.375,-0.359375 0.5625,-0.359375 0.203125,0 0.390625,0.03125 0.515625,0.140625 L 3.15625,-3.53125 3.359375,-4.265625 3.3125,-4.3125 C 3.15625,-4.359375 3.140625,-4.375 2.953125,-4.375 c -0.53125,0 -0.8125,0.3125 -1.265625,1.0625 z m 0,0"
               id="path23061"
               inkscape:connector-curvature="0" />
          </symbol>
          <symbol
             overflow="visible"
             id="textext-defae9f2-5"
             style="overflow:visible">
            <path
               style="stroke:none"
               d="m 1.25,-2.71875 c 0.171875,-1.046875 0.828125,-1.265625 1.125,-1.265625 0.40625,0 0.84375,0.375 0.84375,1.125 0,0.09375 -0.03125,0.140625 -0.140625,0.140625 z m 2.65625,1.6875 c -0.34375,0.375 -0.8125,0.546875 -1.359375,0.546875 -0.34375,0 -0.8125,-0.140625 -1.09375,-0.578125 C 1.28125,-1.328125 1.21875,-1.75 1.21875,-2.328125 l 2.703125,0 c 0.109375,0 0.1875,-0.046875 0.1875,-0.171875 0,-0.828125 -0.40625,-1.875 -1.734375,-1.875 -1.015625,0 -2.03125,0.828125 -2.03125,2.296875 0,0.5625 0.109375,1.125 0.4375,1.515625 0.34375,0.40625 0.921875,0.65625 1.59375,0.65625 0.71875,0 1.359375,-0.359375 1.734375,-0.875 z m 0,0"
               id="path23064"
               inkscape:connector-curvature="0" />
          </symbol>
          <symbol
             overflow="visible"
             id="textext-defae9f2-6"
             style="overflow:visible">
            <path
               style="stroke:none"
               d="m 1.609375,-2.9375 c 0.21875,-0.515625 0.8125,-0.984375 1.203125,-0.984375 0.671875,0 1.03125,0.625 1.03125,1.75 0,0.8125 -0.234375,1.875 -1.296875,1.875 -0.171875,0 -0.578125,-0.046875 -0.9375,-0.453125 z m 0,-0.578125 0,-0.71875 c 0,-0.078125 0,-0.109375 -0.046875,-0.109375 -0.234375,0.046875 -0.578125,0.0625 -0.8125,0.03125 l -0.015625,0.03125 c 0.0625,0.4375 0.078125,1.1875 0.078125,1.9375 l 0,2.65625 c 0,0.75 -0.015625,1.46875 -0.078125,2 L 0.75,2.34375 C 0.875,2.328125 1.09375,2.3125 1.21875,2.3125 c 0.109375,0 0.34375,0.015625 0.46875,0.03125 L 1.703125,2.3125 c -0.0625,-0.5625 -0.09375,-1.25 -0.09375,-2 l 0,-0.4375 c 0.265625,0.140625 0.640625,0.21875 1,0.21875 1.3125,0 2.109375,-0.984375 2.109375,-2.390625 0,-1.0625 -0.625,-2.078125 -1.734375,-2.078125 -0.390625,0 -0.890625,0.203125 -1.34375,0.890625 z m 0,0"
               id="path23067"
               inkscape:connector-curvature="0" />
          </symbol>
          <symbol
             overflow="visible"
             id="textext-defae9f2-7"
             style="overflow:visible">
            <path
               style="stroke:none"
               d="m 0.5,-1 -0.171875,0.828125 c 0.5625,0.203125 1.125,0.265625 1.5,0.265625 1.375,0 1.703125,-0.8125 1.703125,-1.359375 0,-0.8125 -0.65625,-1.140625 -1.359375,-1.3125 C 1.796875,-2.65625 1.25,-2.84375 1.25,-3.34375 c 0,-0.421875 0.328125,-0.640625 0.75,-0.640625 0.515625,0 0.84375,0.421875 1.078125,0.6875 L 3.203125,-3.3125 3.40625,-4.046875 3.390625,-4.078125 C 3.09375,-4.234375 2.546875,-4.375 2.046875,-4.375 c -0.734375,0 -1.515625,0.390625 -1.515625,1.21875 0,0.796875 0.609375,1.046875 1.203125,1.21875 0.578125,0.15625 1,0.328125 1,0.8125 0,0.53125 -0.375,0.828125 -0.90625,0.828125 -0.484375,0 -0.90625,-0.328125 -1.1875,-0.71875 z m 0,0"
               id="path23070"
               inkscape:connector-curvature="0" />
          </symbol>
          <symbol
             overflow="visible"
             id="textext-defae9f2-8"
             style="overflow:visible">
            <path
               style="stroke:none"
               d="m 4.578125,-1.796875 c 0,-0.3125 0.03125,-0.6875 0.03125,-1 0,-1.046875 -0.34375,-1.578125 -1.234375,-1.578125 -0.390625,0 -1.09375,0.140625 -1.734375,0.890625 L 1.625,-3.515625 l 0,-0.71875 C 1.625,-4.3125 1.609375,-4.34375 1.5625,-4.34375 1.34375,-4.296875 0.984375,-4.28125 0.75,-4.3125 l -0.015625,0.03125 c 0.078125,0.4375 0.09375,1.1875 0.09375,1.9375 l 0,0.546875 c 0,0.75 -0.015625,1.265625 -0.09375,1.796875 L 0.75,0.03125 C 0.875,0.015625 1.109375,0 1.21875,0 1.34375,0 1.578125,0.015625 1.6875,0.03125 L 1.71875,0 C 1.640625,-0.5625 1.625,-1.03125 1.625,-1.796875 l 0,-1.15625 C 2.140625,-3.5625 2.71875,-3.78125 3.078125,-3.78125 c 0.5,0 0.703125,0.203125 0.703125,1.015625 l 0,0.96875 c 0,0.75 -0.015625,1.265625 -0.078125,1.796875 L 3.71875,0.03125 C 3.84375,0.015625 4.0625,0 4.1875,0 4.3125,0 4.53125,0.015625 4.65625,0.03125 L 4.671875,0 C 4.59375,-0.5625 4.578125,-1.03125 4.578125,-1.796875 Z m 0,0"
               id="path23073"
               inkscape:connector-curvature="0" />
          </symbol>
          <symbol
             overflow="visible"
             id="textext-defae9f2-9"
             style="overflow:visible">
            <path
               style="stroke:none"
               d="m 0.953125,-4.28125 c -0.203125,0 -0.421875,0 -0.546875,-0.015625 -0.0625,0.15625 -0.109375,0.265625 -0.21875,0.40625 L 0.234375,-3.8125 C 0.40625,-3.828125 0.71875,-3.84375 0.953125,-3.84375 l 0,1.375 c 0,0.59375 -0.03125,1.3125 -0.03125,1.609375 0,0.65625 0.40625,0.953125 0.875,0.953125 0.421875,0 0.734375,-0.09375 1.15625,-0.359375 l -0.125,-0.25 C 2.515625,-0.40625 2.296875,-0.40625 2.046875,-0.4375 1.796875,-0.484375 1.71875,-0.71875 1.71875,-1.25 1.71875,-1.5625 1.75,-1.984375 1.75,-2.578125 l 0,-1.265625 0.375,0 c 0.234375,0 0.59375,0.015625 0.71875,0.03125 0.03125,-0.171875 0.0625,-0.265625 0.109375,-0.421875 L 2.90625,-4.296875 C 2.734375,-4.28125 2.4375,-4.28125 2.21875,-4.28125 l -0.46875,0 c 0,-0.75 0,-0.875 0.046875,-1.453125 0,-0.0625 -0.03125,-0.09375 -0.09375,-0.09375 -0.25,0.09375 -0.375,0.203125 -0.703125,0.25 l -0.015625,0.03125 c -0.015625,0.34375 -0.03125,0.6875 -0.03125,1.265625 z m 0,0"
               id="path23076"
               inkscape:connector-curvature="0" />
          </symbol>
          <symbol
             overflow="visible"
             id="textext-defae9f2-10"
             style="overflow:visible">
            <path
               style="stroke:none"
               d="m 3.09375,-2.25 -0.046875,1.1875 c 0,0.140625 -0.0625,0.203125 -0.140625,0.265625 C 2.625,-0.59375 2.296875,-0.40625 2,-0.40625 c -0.453125,0 -0.75,-0.296875 -0.75,-0.609375 0,-0.453125 0.21875,-0.78125 1,-1 z m 0,1.765625 C 3.203125,-0.09375 3.5,0.09375 3.875,0.09375 c 0.234375,0 0.546875,-0.046875 0.796875,-0.296875 l -0.09375,-0.25 C 4.46875,-0.421875 4.390625,-0.40625 4.3125,-0.40625 4.21875,-0.40625 4.09375,-0.421875 4.03125,-0.484375 3.921875,-0.5625 3.859375,-0.8125 3.859375,-1.25 c 0,-0.296875 0.03125,-1.40625 0.03125,-1.515625 C 3.890625,-4.109375 3,-4.375 2.25,-4.375 1.484375,-4.375 1.03125,-4 0.78125,-3.796875 l -0.03125,0.03125 0.171875,0.671875 0.125,0.015625 c 0.28125,-0.453125 0.625,-0.84375 1.09375,-0.84375 0.359375,0 0.953125,0.046875 0.953125,1.171875 0,0.0625 -0.03125,0.109375 -0.0625,0.125 l -0.921875,0.203125 c -1.015625,0.234375 -1.65625,0.765625 -1.65625,1.4375 0,0.75 0.5,1.078125 1.234375,1.078125 0.5625,0 0.828125,-0.125 1.359375,-0.578125 z m 0,0"
               id="path23079"
               inkscape:connector-curvature="0" />
          </symbol>
          <symbol
             overflow="visible"
             id="textext-defae9f2-11"
             style="overflow:visible">
            <path
               style="stroke:none"
               d="m 1.609375,-0.8125 0,-2.578125 C 2,-3.78125 2.25,-3.984375 2.65625,-3.984375 c 0.609375,0 1.15625,0.5 1.15625,1.75 0,1.234375 -0.375,1.9375 -1.3125,1.9375 -0.3125,0 -0.6875,-0.265625 -0.890625,-0.515625 z m 0,-4.171875 c 0,-0.734375 0.015625,-1.265625 0.0625,-1.875 0,-0.0625 -0.03125,-0.09375 -0.09375,-0.09375 -0.25,0.09375 -0.453125,0.171875 -0.859375,0.1875 l -0.015625,0.03125 C 0.78125,-6.296875 0.8125,-5.5625 0.8125,-4.8125 l 0,4.078125 c 0,0.390625 0,0.53125 -0.046875,0.75 0.0625,0.0625 0.1875,0.078125 0.28125,0.078125 C 1.15625,-0.015625 1.28125,-0.1875 1.375,-0.390625 c 0.296875,0.25 0.75,0.484375 1.171875,0.484375 1.015625,0 2.140625,-0.71875 2.140625,-2.40625 0,-1.21875 -0.859375,-2.0625 -1.828125,-2.0625 -0.484375,0 -0.90625,0.125 -1.25,0.5 z m 0,0"
               id="path23082"
               inkscape:connector-curvature="0" />
          </symbol>
          <symbol
             overflow="visible"
             id="textext-defae9f2-12"
             style="overflow:visible">
            <path
               style="stroke:none"
               d="m 0.890625,-2 c 0,0.75 0,1.46875 -0.078125,2 L 0.828125,0.03125 C 0.953125,0.015625 1.171875,0 1.296875,0 c 0.125,0 0.34375,0.015625 0.46875,0.03125 L 1.78125,0 C 1.703125,-0.5625 1.6875,-1.25 1.6875,-2 l 0,-2.984375 c 0,-0.75 0.046875,-1.25 0.09375,-1.875 0,-0.0625 -0.03125,-0.09375 -0.09375,-0.09375 -0.234375,0.09375 -0.453125,0.171875 -0.859375,0.1875 L 0.8125,-6.734375 c 0.078125,0.4375 0.078125,1.171875 0.078125,1.921875 z m 0,0"
               id="path23085"
               inkscape:connector-curvature="0" />
          </symbol>
        </g>
      </defs>
      <g
         id="textext-defae9f2-13">
        <g
           style="fill:black;fill-opacity:1"
           id="g23088">
          <use
             xlink:href="#textext-defae9f2-1"
             x="90"
             y="118.824"
             id="use23090"
             width="100%"
             height="100%" />
        </g>
        <g
           style="fill:black;fill-opacity:1"
           id="g23092">
          <use
             xlink:href="#textext-defae9f2-3"
             x="99.091003"
             y="118.824"
             id="use23094"
             width="100%"
             height="100%" />
          <use
             xlink:href="#textext-defae9f2-4"
             x="102.40855"
             y="118.824"
             id="use23096"
             width="100%"
             height="100%" />
        </g>
        <g
           style="fill:black;fill-opacity:1"
           id="g23098">
          <use
             xlink:href="#textext-defae9f2-5"
             x="105.86557"
             y="118.824"
             id="use23100"
             width="100%"
             height="100%" />
          <use
             xlink:href="#textext-defae9f2-6"
             x="110.37862"
             y="118.824"
             id="use23102"
             width="100%"
             height="100%" />
          <use
             xlink:href="#textext-defae9f2-4"
             x="115.58907"
             y="118.824"
             id="use23104"
             width="100%"
             height="100%" />
        </g>
        <g
           style="fill:black;fill-opacity:1"
           id="g23106">
          <use
             xlink:href="#textext-defae9f2-5"
             x="119.04609"
             y="118.824"
             id="use23108"
             width="100%"
             height="100%" />
          <use
             xlink:href="#textext-defae9f2-7"
             x="123.55914"
             y="118.824"
             id="use23110"
             width="100%"
             height="100%" />
          <use
             xlink:href="#textext-defae9f2-5"
             x="127.50433"
             y="118.824"
             id="use23112"
             width="100%"
             height="100%" />
          <use
             xlink:href="#textext-defae9f2-8"
             x="132.0174"
             y="118.824"
             id="use23114"
             width="100%"
             height="100%" />
          <use
             xlink:href="#textext-defae9f2-9"
             x="137.38724"
             y="118.824"
             id="use23116"
             width="100%"
             height="100%" />
          <use
             xlink:href="#textext-defae9f2-10"
             x="140.77452"
             y="118.824"
             id="use23118"
             width="100%"
             height="100%" />
          <use
             xlink:href="#textext-defae9f2-11"
             x="145.56653"
             y="118.824"
             id="use23120"
             width="100%"
             height="100%" />
          <use
             xlink:href="#textext-defae9f2-12"
             x="150.58768"
             y="118.824"
             id="use23122"
             width="100%"
             height="100%" />
          <use
             xlink:href="#textext-defae9f2-5"
             x="153.09825"
             y="118.824"
             id="use23124"
             width="100%"
             height="100%" />
        </g>
      </g>
    </g>
    <path
       style="fill:none;fill-rule:evenodd;stroke:#000000;stroke-width:0.91531581px;stroke-linecap:butt;stroke-linejoin:miter;stroke-opacity:1"
       d="M 288.05493,458.6419 151.94174,539.46664"
       id="path24224"
       inkscape:connector-curvature="0" />
    <path
       style="fill:none;fill-rule:evenodd;stroke:black;stroke-width:0.75536883px;stroke-linecap:butt;stroke-linejoin:miter;stroke-opacity:1"
       d="M 144.31837,396.6815 66.314504,511.90203"
       id="path24228"
       inkscape:connector-curvature="0" />
    <g
       transform="matrix(1.75,0,0,1.75,-116.3575,168.66917)"
       ns0:text="$ \\tr{ {^p\\Gamma} H_1^{(p)} } = E_{0}(H_1^{(p)}) $"
       ns0:preamble="/home/ward/Documents/PhD/preamble.tex"
       id="g24359">
      <defs
         id="defs24361">
        <g
           id="g24363">
          <symbol
             overflow="visible"
             id="textext-29c15e78-0"
             style="overflow:visible">
            <path
               style="stroke:none"
               d=""
               id="path24366"
               inkscape:connector-curvature="0" />
          </symbol>
          <symbol
             overflow="visible"
             id="textext-29c15e78-1"
             style="overflow:visible">
            <path
               style="stroke:none"
               d="m 6.640625,-6.75 -6.09375,0 -0.1875,2.25 0.25,0 C 0.75,-6.109375 0.890625,-6.4375 2.40625,-6.4375 c 0.171875,0 0.4375,0 0.53125,0.015625 0.21875,0.046875 0.21875,0.15625 0.21875,0.375 l 0,5.265625 c 0,0.328125 0,0.46875 -1.046875,0.46875 l -0.40625,0 0,0.3125 C 2.109375,-0.03125 3.125,-0.03125 3.59375,-0.03125 c 0.453125,0 1.484375,0 1.890625,0.03125 l 0,-0.3125 -0.40625,0 c -1.046875,0 -1.046875,-0.140625 -1.046875,-0.46875 l 0,-5.265625 c 0,-0.1875 0,-0.328125 0.1875,-0.375 0.109375,-0.015625 0.375,-0.015625 0.5625,-0.015625 1.515625,0 1.65625,0.328125 1.796875,1.9375 l 0.25,0 z m 0,0"
               id="path24369"
               inkscape:connector-curvature="0" />
          </symbol>
          <symbol
             overflow="visible"
             id="textext-29c15e78-2"
             style="overflow:visible">
            <path
               style="stroke:none"
               d="m 1.671875,-3.3125 0,-1.09375 -1.390625,0.109375 0,0.3125 c 0.703125,0 0.78125,0.0625 0.78125,0.5625 l 0,2.671875 c 0,0.4375 -0.109375,0.4375 -0.78125,0.4375 l 0,0.3125 c 0.390625,-0.015625 0.859375,-0.03125 1.140625,-0.03125 0.390625,0 0.859375,0 1.265625,0.03125 l 0,-0.3125 -0.21875,0 c -0.734375,0 -0.75,-0.109375 -0.75,-0.46875 l 0,-1.53125 c 0,-0.984375 0.421875,-1.875 1.171875,-1.875 0.0625,0 0.09375,0 0.109375,0.015625 -0.03125,0 -0.234375,0.125 -0.234375,0.390625 0,0.265625 0.21875,0.421875 0.4375,0.421875 0.171875,0 0.421875,-0.125 0.421875,-0.4375 0,-0.3125 -0.3125,-0.609375 -0.734375,-0.609375 -0.734375,0 -1.09375,0.671875 -1.21875,1.09375 z m 0,0"
               id="path24372"
               inkscape:connector-curvature="0" />
          </symbol>
          <symbol
             overflow="visible"
             id="textext-29c15e78-3"
             style="overflow:visible">
            <path
               style="stroke:none"
               d="m 5.515625,-6.78125 -5.1875,0 0,0.3125 0.234375,0 c 0.765625,0 0.796875,0.109375 0.796875,0.46875 l 0,5.21875 c 0,0.359375 -0.03125,0.46875 -0.796875,0.46875 l -0.234375,0 0,0.3125 c 0.34375,-0.03125 1.125,-0.03125 1.515625,-0.03125 0.40625,0 1.3125,0 1.671875,0.03125 l 0,-0.3125 -0.328125,0 C 2.25,-0.3125 2.25,-0.4375 2.25,-0.78125 l 0,-5.296875 c 0,-0.328125 0.015625,-0.390625 0.484375,-0.390625 l 1.03125,0 c 1.421875,0 1.625,0.59375 1.78125,1.9375 l 0.25,0 z m 0,0"
               id="path24375"
               inkscape:connector-curvature="0" />
          </symbol>
          <symbol
             overflow="visible"
             id="textext-29c15e78-4"
             style="overflow:visible">
            <path
               style="stroke:none"
               d="m 6.84375,-3.265625 c 0.15625,0 0.34375,0 0.34375,-0.1875 C 7.1875,-3.65625 7,-3.65625 6.859375,-3.65625 l -5.96875,0 c -0.140625,0 -0.328125,0 -0.328125,0.203125 0,0.1875 0.1875,0.1875 0.328125,0.1875 z m 0.015625,1.9375 c 0.140625,0 0.328125,0 0.328125,-0.203125 0,-0.1875 -0.1875,-0.1875 -0.34375,-0.1875 l -5.953125,0 c -0.140625,0 -0.328125,0 -0.328125,0.1875 0,0.203125 0.1875,0.203125 0.328125,0.203125 z m 0,0"
               id="path24378"
               inkscape:connector-curvature="0" />
          </symbol>
          <symbol
             overflow="visible"
             id="textext-29c15e78-5"
             style="overflow:visible">
            <path
               style="stroke:none"
               d="m 3.296875,2.390625 c 0,-0.03125 0,-0.046875 -0.171875,-0.21875 C 1.890625,0.921875 1.5625,-0.96875 1.5625,-2.5 c 0,-1.734375 0.375,-3.46875 1.609375,-4.703125 0.125,-0.125 0.125,-0.140625 0.125,-0.171875 0,-0.078125 -0.03125,-0.109375 -0.09375,-0.109375 -0.109375,0 -1,0.6875 -1.59375,1.953125 -0.5,1.09375 -0.625,2.203125 -0.625,3.03125 0,0.78125 0.109375,1.984375 0.65625,3.125 C 2.25,1.84375 3.09375,2.5 3.203125,2.5 c 0.0625,0 0.09375,-0.03125 0.09375,-0.109375 z m 0,0"
               id="path24381"
               inkscape:connector-curvature="0" />
          </symbol>
          <symbol
             overflow="visible"
             id="textext-29c15e78-6"
             style="overflow:visible">
            <path
               style="stroke:none"
               d="m 2.875,-2.5 c 0,-0.765625 -0.109375,-1.96875 -0.65625,-3.109375 -0.59375,-1.21875 -1.453125,-1.875 -1.546875,-1.875 -0.0625,0 -0.109375,0.046875 -0.109375,0.109375 0,0.03125 0,0.046875 0.1875,0.234375 0.984375,0.984375 1.546875,2.5625 1.546875,4.640625 0,1.71875 -0.359375,3.46875 -1.59375,4.71875 C 0.5625,2.34375 0.5625,2.359375 0.5625,2.390625 0.5625,2.453125 0.609375,2.5 0.671875,2.5 0.765625,2.5 1.671875,1.8125 2.25,0.546875 2.765625,-0.546875 2.875,-1.65625 2.875,-2.5 Z m 0,0"
               id="path24384"
               inkscape:connector-curvature="0" />
          </symbol>
          <symbol
             overflow="visible"
             id="textext-29c15e78-7"
             style="overflow:visible">
            <path
               style="stroke:none"
               d=""
               id="path24387"
               inkscape:connector-curvature="0" />
          </symbol>
          <symbol
             overflow="visible"
             id="textext-29c15e78-8"
             style="overflow:visible">
            <path
               style="stroke:none"
               d="M 5.140625,17.421875 C 5.15625,17.4375 5.25,17.53125 5.25,17.53125 l 0.21875,0 c 0.03125,0 0.109375,0 0.109375,-0.09375 0,-0.04687 -0.015625,-0.0625 -0.03125,-0.09375 -0.359375,-0.359375 -0.90625,-0.90625 -1.515625,-2 -1.078125,-1.921875 -1.484375,-4.375 -1.484375,-6.765625 0,-4.4375 1.265625,-7.03125 3,-8.796875 0.03125,-0.03125 0.03125,-0.0625 0.03125,-0.078125 0,-0.109375 -0.0625,-0.109375 -0.1875,-0.109375 -0.125,0 -0.140625,0 -0.234375,0.09375 C 4.203125,0.5 3.140625,1.890625 2.453125,3.984375 2.03125,5.296875 1.796875,6.90625 1.796875,8.5625 c 0,2.359375 0.421875,5.03125 1.984375,7.34375 0.28125,0.390625 0.640625,0.796875 0.640625,0.8125 C 4.53125,16.84375 4.671875,17 4.75,17.0625 Z m 0,0"
               id="path24390"
               inkscape:connector-curvature="0" />
          </symbol>
          <symbol
             overflow="visible"
             id="textext-29c15e78-9"
             style="overflow:visible">
            <path
               style="stroke:none"
               d="m 4.140625,8.5625 c 0,-2.859375 -0.65625,-5.90625 -2.625,-8.140625 C 1.375,0.265625 1,-0.125 0.765625,-0.34375 c -0.0625,-0.0625 -0.09375,-0.0625 -0.21875,-0.0625 -0.09375,0 -0.1875,0 -0.1875,0.109375 0,0.03125 0.046875,0.078125 0.0625,0.09375 0.328125,0.359375 0.875,0.90625 1.484375,2 1.078125,1.90625 1.484375,4.375 1.484375,6.765625 0,4.328125 -1.203125,6.96875 -2.984375,8.796875 C 0.375,17.375 0.359375,17.40625 0.359375,17.4375 c 0,0.09375 0.09375,0.09375 0.1875,0.09375 0.125,0 0.15625,0 0.234375,-0.07813 0.953125,-0.8125 2.015625,-2.203125 2.703125,-4.296875 0.4375,-1.375 0.65625,-2.984375 0.65625,-4.59375 z m 0,0"
               id="path24393"
               inkscape:connector-curvature="0" />
          </symbol>
          <symbol
             overflow="visible"
             id="textext-29c15e78-10"
             style="overflow:visible">
            <path
               style="stroke:none"
               d=""
               id="path24396"
               inkscape:connector-curvature="0" />
          </symbol>
          <symbol
             overflow="visible"
             id="textext-29c15e78-11"
             style="overflow:visible">
            <path
               style="stroke:none"
               d="m 0.515625,0.84375 c -0.046875,0.203125 -0.0625,0.25 -0.328125,0.25 -0.09375,0 -0.1875,0 -0.1875,0.15625 0,0.078125 0.0625,0.109375 0.09375,0.109375 0.171875,0 0.40625,-0.03125 0.59375,-0.03125 0.234375,0 0.5,0.03125 0.734375,0.03125 0.0625,0 0.140625,-0.03125 0.140625,-0.15625 0,-0.109375 -0.09375,-0.109375 -0.1875,-0.109375 -0.15625,0 -0.34375,0 -0.34375,-0.078125 0,-0.03125 0.0625,-0.21875 0.078125,-0.3125 0.09375,-0.375 0.1875,-0.75 0.265625,-1.046875 0.078125,0.140625 0.296875,0.40625 0.71875,0.40625 0.84375,0 1.78125,-0.9375 1.78125,-1.96875 0,-0.8125 -0.5625,-1.171875 -1.03125,-1.171875 -0.4375,0 -0.8125,0.296875 -1,0.5 -0.109375,-0.40625 -0.5,-0.5 -0.71875,-0.5 -0.265625,0 -0.4375,0.1875 -0.546875,0.375 -0.140625,0.234375 -0.25,0.65625 -0.25,0.703125 0,0.078125 0.09375,0.078125 0.125,0.078125 0.09375,0 0.09375,-0.015625 0.140625,-0.203125 0.109375,-0.40625 0.25,-0.75 0.515625,-0.75 0.1875,0 0.234375,0.15625 0.234375,0.34375 0,0.078125 -0.015625,0.15625 -0.03125,0.203125 z M 1.84375,-2.234375 C 2.25,-2.78125 2.59375,-2.875 2.8125,-2.875 c 0.28125,0 0.515625,0.203125 0.515625,0.671875 0,0.28125 -0.15625,1 -0.359375,1.40625 -0.1875,0.34375 -0.515625,0.671875 -0.875,0.671875 -0.5,0 -0.625,-0.53125 -0.625,-0.609375 0,-0.03125 0.015625,-0.078125 0.015625,-0.109375 z m 0,0"
               id="path24399"
               inkscape:connector-curvature="0" />
          </symbol>
          <symbol
             overflow="visible"
             id="textext-29c15e78-12"
             style="overflow:visible">
            <path
               style="stroke:none"
               d=""
               id="path24402"
               inkscape:connector-curvature="0" />
          </symbol>
          <symbol
             overflow="visible"
             id="textext-29c15e78-13"
             style="overflow:visible">
            <path
               style="stroke:none"
               d="M 7.609375,-6.046875 C 7.703125,-6.40625 7.71875,-6.5 8.4375,-6.5 c 0.265625,0 0.34375,0 0.34375,-0.203125 0,-0.109375 -0.109375,-0.109375 -0.140625,-0.109375 -0.28125,0 -1,0.03125 -1.28125,0.03125 -0.28125,0 -0.984375,-0.03125 -1.28125,-0.03125 -0.078125,0 -0.1875,0 -0.1875,0.203125 0,0.109375 0.09375,0.109375 0.28125,0.109375 0.015625,0 0.203125,0 0.375,0.015625 0.1875,0.03125 0.265625,0.03125 0.265625,0.171875 0,0.03125 0,0.046875 -0.03125,0.1875 l -0.59375,2.421875 -3.046875,0 0.59375,-2.34375 C 3.8125,-6.40625 3.84375,-6.5 4.5625,-6.5 c 0.265625,0 0.34375,0 0.34375,-0.203125 0,-0.109375 -0.109375,-0.109375 -0.140625,-0.109375 -0.28125,0 -1,0.03125 -1.28125,0.03125 -0.28125,0 -0.984375,-0.03125 -1.28125,-0.03125 -0.078125,0 -0.1875,0 -0.1875,0.203125 0,0.109375 0.09375,0.109375 0.28125,0.109375 0.015625,0 0.203125,0 0.375,0.015625 0.171875,0.03125 0.265625,0.03125 0.265625,0.171875 0,0.03125 0,0.0625 -0.03125,0.1875 L 1.5625,-0.78125 c -0.09375,0.390625 -0.109375,0.46875 -0.90625,0.46875 -0.171875,0 -0.265625,0 -0.265625,0.203125 C 0.390625,0 0.515625,0 0.53125,0 0.8125,0 1.515625,-0.03125 1.796875,-0.03125 2,-0.03125 2.21875,-0.015625 2.4375,-0.015625 2.65625,-0.015625 2.875,0 3.078125,0 3.15625,0 3.28125,0 3.28125,-0.203125 3.28125,-0.3125 3.1875,-0.3125 3,-0.3125 c -0.375,0 -0.640625,0 -0.640625,-0.171875 0,-0.0625 0.015625,-0.109375 0.015625,-0.171875 l 0.6875,-2.734375 3.03125,0 c -0.40625,1.65625 -0.640625,2.609375 -0.6875,2.75 C 5.3125,-0.3125 5.125,-0.3125 4.5,-0.3125 c -0.140625,0 -0.234375,0 -0.234375,0.203125 C 4.265625,0 4.390625,0 4.40625,0 4.6875,0 5.390625,-0.03125 5.671875,-0.03125 5.875,-0.03125 6.09375,-0.015625 6.3125,-0.015625 6.53125,-0.015625 6.75,0 6.953125,0 7.03125,0 7.15625,0 7.15625,-0.203125 7.15625,-0.3125 7.0625,-0.3125 6.875,-0.3125 c -0.359375,0 -0.640625,0 -0.640625,-0.171875 0,-0.0625 0.015625,-0.109375 0.03125,-0.171875 z m 0,0"
               id="path24405"
               inkscape:connector-curvature="0" />
          </symbol>
          <symbol
             overflow="visible"
             id="textext-29c15e78-14"
             style="overflow:visible">
            <path
               style="stroke:none"
               d="M 7.0625,-2.328125 C 7.078125,-2.375 7.109375,-2.4375 7.109375,-2.46875 c 0,0 0,-0.109375 -0.125,-0.109375 -0.09375,0 -0.109375,0.0625 -0.125,0.125 -0.65625,1.46875 -1.015625,2.140625 -2.71875,2.140625 l -1.453125,0 c -0.140625,0 -0.171875,0 -0.21875,0 -0.109375,-0.015625 -0.140625,-0.03125 -0.140625,-0.109375 0,-0.03125 0,-0.046875 0.046875,-0.21875 L 3.0625,-3.375 l 0.984375,0 c 0.84375,0 0.84375,0.21875 0.84375,0.46875 0,0.0625 0,0.1875 -0.0625,0.484375 C 4.8125,-2.375 4.796875,-2.34375 4.796875,-2.3125 c 0,0.046875 0.03125,0.109375 0.125,0.109375 C 5,-2.203125 5.03125,-2.25 5.078125,-2.40625 l 0.5625,-2.328125 c 0,-0.0625 -0.046875,-0.109375 -0.125,-0.109375 -0.078125,0 -0.109375,0.0625 -0.125,0.171875 -0.21875,0.765625 -0.390625,1 -1.3125,1 l -0.9375,0 0.59375,-2.40625 C 3.828125,-6.4375 3.84375,-6.46875 4.28125,-6.46875 l 1.40625,0 c 1.203125,0 1.515625,0.28125 1.515625,1.109375 0,0.234375 0,0.25 -0.046875,0.53125 0,0.046875 -0.015625,0.125 -0.015625,0.171875 0,0.046875 0.03125,0.125 0.125,0.125 0.109375,0 0.125,-0.0625 0.140625,-0.25 L 7.609375,-6.515625 C 7.640625,-6.78125 7.59375,-6.78125 7.34375,-6.78125 l -5.046875,0 c -0.1875,0 -0.296875,0 -0.296875,0.203125 0,0.109375 0.09375,0.109375 0.28125,0.109375 0.375,0 0.65625,0 0.65625,0.171875 0,0.046875 0,0.0625 -0.0625,0.25 L 1.5625,-0.78125 c -0.09375,0.390625 -0.109375,0.46875 -0.90625,0.46875 -0.171875,0 -0.28125,0 -0.28125,0.1875 C 0.375,0 0.46875,0 0.65625,0 l 5.171875,0 c 0.234375,0 0.25,-0.015625 0.3125,-0.171875 z m 0,0"
               id="path24408"
               inkscape:connector-curvature="0" />
          </symbol>
          <symbol
             overflow="visible"
             id="textext-29c15e78-15"
             style="overflow:visible">
            <path
               style="stroke:none"
               d=""
               id="path24411"
               inkscape:connector-curvature="0" />
          </symbol>
          <symbol
             overflow="visible"
             id="textext-29c15e78-16"
             style="overflow:visible">
            <path
               style="stroke:none"
               d="M 2.46875,-5.21875 C 1.15625,-4.296875 0.796875,-2.8125 0.796875,-1.75 c 0,0.984375 0.296875,2.515625 1.671875,3.484375 0.0625,0 0.140625,0 0.140625,-0.078125 0,-0.046875 -0.015625,-0.0625 -0.0625,-0.109375 C 1.609375,0.703125 1.28125,-0.46875 1.28125,-1.734375 1.28125,-3.625 2,-4.546875 2.5625,-5.0625 2.59375,-5.09375 2.609375,-5.109375 2.609375,-5.140625 2.609375,-5.21875 2.53125,-5.21875 2.46875,-5.21875 Z m 0,0"
               id="path24414"
               inkscape:connector-curvature="0" />
          </symbol>
          <symbol
             overflow="visible"
             id="textext-29c15e78-17"
             style="overflow:visible">
            <path
               style="stroke:none"
               d="m 0.625,-5.21875 c -0.046875,0 -0.125,0 -0.125,0.078125 0,0.03125 0.015625,0.046875 0.0625,0.109375 0.59375,0.546875 1.265625,1.484375 1.265625,3.28125 0,1.453125 -0.453125,2.5625 -1.203125,3.234375 -0.125,0.125 -0.125,0.125 -0.125,0.171875 0,0.03125 0.015625,0.078125 0.078125,0.078125 0.09375,0 0.75,-0.453125 1.21875,-1.328125 0.296875,-0.578125 0.5,-1.328125 0.5,-2.140625 C 2.296875,-2.71875 2,-4.25 0.625,-5.21875 Z m 0,0"
               id="path24417"
               inkscape:connector-curvature="0" />
          </symbol>
          <symbol
             overflow="visible"
             id="textext-29c15e78-18"
             style="overflow:visible">
            <path
               style="stroke:none"
               d="m 2.328125,-4.4375 c 0,-0.1875 0,-0.1875 -0.203125,-0.1875 -0.453125,0.4375 -1.078125,0.4375 -1.359375,0.4375 l 0,0.25 c 0.15625,0 0.625,0 1,-0.1875 l 0,3.546875 c 0,0.234375 0,0.328125 -0.6875,0.328125 l -0.265625,0 0,0.25 c 0.125,0 0.984375,-0.03125 1.234375,-0.03125 0.21875,0 1.09375,0.03125 1.25,0.03125 l 0,-0.25 -0.265625,0 c -0.703125,0 -0.703125,-0.09375 -0.703125,-0.328125 z m 0,0"
               id="path24420"
               inkscape:connector-curvature="0" />
          </symbol>
          <symbol
             overflow="visible"
             id="textext-29c15e78-19"
             style="overflow:visible">
            <path
               style="stroke:none"
               d="M 3.59375,-2.21875 C 3.59375,-2.984375 3.5,-3.546875 3.1875,-4.03125 2.96875,-4.34375 2.53125,-4.625 1.984375,-4.625 c -1.625,0 -1.625,1.90625 -1.625,2.40625 0,0.5 0,2.359375 1.625,2.359375 1.609375,0 1.609375,-1.859375 1.609375,-2.359375 z M 1.984375,-0.0625 c -0.328125,0 -0.75,-0.1875 -0.890625,-0.75 C 1,-1.21875 1,-1.796875 1,-2.3125 1,-2.828125 1,-3.359375 1.09375,-3.734375 1.25,-4.28125 1.6875,-4.4375 1.984375,-4.4375 c 0.375,0 0.734375,0.234375 0.859375,0.640625 0.109375,0.375 0.125,0.875 0.125,1.484375 0,0.515625 0,1.03125 -0.09375,1.46875 -0.140625,0.640625 -0.609375,0.78125 -0.890625,0.78125 z m 0,0"
               id="path24423"
               inkscape:connector-curvature="0" />
          </symbol>
        </g>
      </defs>
      <g
         id="textext-29c15e78-20">
        <g
           style="fill:black;fill-opacity:1"
           id="g24426">
          <use
             xlink:href="#textext-29c15e78-1"
             x="90"
             y="120.319"
             id="use24428"
             width="100%"
             height="100%" />
        </g>
        <g
           style="fill:black;fill-opacity:1"
           id="g24430">
          <use
             xlink:href="#textext-29c15e78-2"
             x="96.368095"
             y="120.319"
             id="use24432"
             width="100%"
             height="100%" />
        </g>
        <g
           style="fill:black;fill-opacity:1"
           id="g24434">
          <use
             xlink:href="#textext-29c15e78-8"
             x="101.927"
             y="109.26"
             id="use24436"
             width="100%"
             height="100%" />
        </g>
        <g
           style="fill:black;fill-opacity:1"
           id="g24438">
          <use
             xlink:href="#textext-29c15e78-11"
             x="107.877"
             y="116.704"
             id="use24440"
             width="100%"
             height="100%" />
        </g>
        <g
           style="fill:black;fill-opacity:1"
           id="g24442">
          <use
             xlink:href="#textext-29c15e78-3"
             x="112.482"
             y="120.319"
             id="use24444"
             width="100%"
             height="100%" />
        </g>
        <g
           style="fill:black;fill-opacity:1"
           id="g24446">
          <use
             xlink:href="#textext-29c15e78-13"
             x="118.709"
             y="120.319"
             id="use24448"
             width="100%"
             height="100%" />
        </g>
        <g
           style="fill:black;fill-opacity:1"
           id="g24450">
          <use
             xlink:href="#textext-29c15e78-16"
             x="127.8"
             y="115.144"
             id="use24452"
             width="100%"
             height="100%" />
        </g>
        <g
           style="fill:black;fill-opacity:1"
           id="g24454">
          <use
             xlink:href="#textext-29c15e78-11"
             x="130.91299"
             y="115.144"
             id="use24456"
             width="100%"
             height="100%" />
        </g>
        <g
           style="fill:black;fill-opacity:1"
           id="g24458">
          <use
             xlink:href="#textext-29c15e78-17"
             x="135.02"
             y="115.144"
             id="use24460"
             width="100%"
             height="100%" />
        </g>
        <g
           style="fill:black;fill-opacity:1"
           id="g24462">
          <use
             xlink:href="#textext-29c15e78-18"
             x="126.99"
             y="122.976"
             id="use24464"
             width="100%"
             height="100%" />
        </g>
        <g
           style="fill:black;fill-opacity:1"
           id="g24466">
          <use
             xlink:href="#textext-29c15e78-9"
             x="138.632"
             y="109.26"
             id="use24468"
             width="100%"
             height="100%" />
        </g>
        <g
           style="fill:black;fill-opacity:1"
           id="g24470">
          <use
             xlink:href="#textext-29c15e78-4"
             x="147.349"
             y="120.319"
             id="use24472"
             width="100%"
             height="100%" />
        </g>
        <g
           style="fill:black;fill-opacity:1"
           id="g24474">
          <use
             xlink:href="#textext-29c15e78-14"
             x="157.86501"
             y="120.319"
             id="use24476"
             width="100%"
             height="100%" />
        </g>
        <g
           style="fill:black;fill-opacity:1"
           id="g24478">
          <use
             xlink:href="#textext-29c15e78-19"
             x="165.21899"
             y="121.813"
             id="use24480"
             width="100%"
             height="100%" />
        </g>
        <g
           style="fill:black;fill-opacity:1"
           id="g24482">
          <use
             xlink:href="#textext-29c15e78-5"
             x="169.689"
             y="120.319"
             id="use24484"
             width="100%"
             height="100%" />
        </g>
        <g
           style="fill:black;fill-opacity:1"
           id="g24486">
          <use
             xlink:href="#textext-29c15e78-13"
             x="173.563"
             y="120.319"
             id="use24488"
             width="100%"
             height="100%" />
        </g>
        <g
           style="fill:black;fill-opacity:1"
           id="g24490">
          <use
             xlink:href="#textext-29c15e78-16"
             x="182.65401"
             y="115.144"
             id="use24492"
             width="100%"
             height="100%" />
        </g>
        <g
           style="fill:black;fill-opacity:1"
           id="g24494">
          <use
             xlink:href="#textext-29c15e78-11"
             x="185.767"
             y="115.144"
             id="use24496"
             width="100%"
             height="100%" />
        </g>
        <g
           style="fill:black;fill-opacity:1"
           id="g24498">
          <use
             xlink:href="#textext-29c15e78-17"
             x="189.87399"
             y="115.144"
             id="use24500"
             width="100%"
             height="100%" />
        </g>
        <g
           style="fill:black;fill-opacity:1"
           id="g24502">
          <use
             xlink:href="#textext-29c15e78-18"
             x="181.845"
             y="122.976"
             id="use24504"
             width="100%"
             height="100%" />
        </g>
        <g
           style="fill:black;fill-opacity:1"
           id="g24506">
          <use
             xlink:href="#textext-29c15e78-6"
             x="193.48599"
             y="120.319"
             id="use24508"
             width="100%"
             height="100%" />
        </g>
      </g>
    </g>
    <g
       id="g24938"
       ns0:preamble="/home/ward/Documents/PhD/preamble.tex"
       ns0:text="$ \\tr{ {^p\\Gamma} H_2^{(p)} } = E_{0}(H_2^{(p)}) $"
       transform="matrix(1.75,0,0,1.75,78.2075,300.11334)">
      <defs
         id="defs24940">
        <g
           id="g24942">
          <symbol
             id="textext-5697ff8a-0"
             overflow="visible"
             style="overflow:visible">
            <path
               id="path24945"
               d=""
               style="stroke:none"
               inkscape:connector-curvature="0" />
          </symbol>
          <symbol
             id="textext-5697ff8a-1"
             overflow="visible"
             style="overflow:visible">
            <path
               id="path24948"
               d="m 6.640625,-6.75 -6.09375,0 -0.1875,2.25 0.25,0 C 0.75,-6.109375 0.890625,-6.4375 2.40625,-6.4375 c 0.171875,0 0.4375,0 0.53125,0.015625 0.21875,0.046875 0.21875,0.15625 0.21875,0.375 l 0,5.265625 c 0,0.328125 0,0.46875 -1.046875,0.46875 l -0.40625,0 0,0.3125 C 2.109375,-0.03125 3.125,-0.03125 3.59375,-0.03125 c 0.453125,0 1.484375,0 1.890625,0.03125 l 0,-0.3125 -0.40625,0 c -1.046875,0 -1.046875,-0.140625 -1.046875,-0.46875 l 0,-5.265625 c 0,-0.1875 0,-0.328125 0.1875,-0.375 0.109375,-0.015625 0.375,-0.015625 0.5625,-0.015625 1.515625,0 1.65625,0.328125 1.796875,1.9375 l 0.25,0 z m 0,0"
               style="stroke:none"
               inkscape:connector-curvature="0" />
          </symbol>
          <symbol
             id="textext-5697ff8a-2"
             overflow="visible"
             style="overflow:visible">
            <path
               id="path24951"
               d="m 1.671875,-3.3125 0,-1.09375 -1.390625,0.109375 0,0.3125 c 0.703125,0 0.78125,0.0625 0.78125,0.5625 l 0,2.671875 c 0,0.4375 -0.109375,0.4375 -0.78125,0.4375 l 0,0.3125 c 0.390625,-0.015625 0.859375,-0.03125 1.140625,-0.03125 0.390625,0 0.859375,0 1.265625,0.03125 l 0,-0.3125 -0.21875,0 c -0.734375,0 -0.75,-0.109375 -0.75,-0.46875 l 0,-1.53125 c 0,-0.984375 0.421875,-1.875 1.171875,-1.875 0.0625,0 0.09375,0 0.109375,0.015625 -0.03125,0 -0.234375,0.125 -0.234375,0.390625 0,0.265625 0.21875,0.421875 0.4375,0.421875 0.171875,0 0.421875,-0.125 0.421875,-0.4375 0,-0.3125 -0.3125,-0.609375 -0.734375,-0.609375 -0.734375,0 -1.09375,0.671875 -1.21875,1.09375 z m 0,0"
               style="stroke:none"
               inkscape:connector-curvature="0" />
          </symbol>
          <symbol
             id="textext-5697ff8a-3"
             overflow="visible"
             style="overflow:visible">
            <path
               id="path24954"
               d="m 5.515625,-6.78125 -5.1875,0 0,0.3125 0.234375,0 c 0.765625,0 0.796875,0.109375 0.796875,0.46875 l 0,5.21875 c 0,0.359375 -0.03125,0.46875 -0.796875,0.46875 l -0.234375,0 0,0.3125 c 0.34375,-0.03125 1.125,-0.03125 1.515625,-0.03125 0.40625,0 1.3125,0 1.671875,0.03125 l 0,-0.3125 -0.328125,0 C 2.25,-0.3125 2.25,-0.4375 2.25,-0.78125 l 0,-5.296875 c 0,-0.328125 0.015625,-0.390625 0.484375,-0.390625 l 1.03125,0 c 1.421875,0 1.625,0.59375 1.78125,1.9375 l 0.25,0 z m 0,0"
               style="stroke:none"
               inkscape:connector-curvature="0" />
          </symbol>
          <symbol
             id="textext-5697ff8a-4"
             overflow="visible"
             style="overflow:visible">
            <path
               id="path24957"
               d="m 6.84375,-3.265625 c 0.15625,0 0.34375,0 0.34375,-0.1875 C 7.1875,-3.65625 7,-3.65625 6.859375,-3.65625 l -5.96875,0 c -0.140625,0 -0.328125,0 -0.328125,0.203125 0,0.1875 0.1875,0.1875 0.328125,0.1875 z m 0.015625,1.9375 c 0.140625,0 0.328125,0 0.328125,-0.203125 0,-0.1875 -0.1875,-0.1875 -0.34375,-0.1875 l -5.953125,0 c -0.140625,0 -0.328125,0 -0.328125,0.1875 0,0.203125 0.1875,0.203125 0.328125,0.203125 z m 0,0"
               style="stroke:none"
               inkscape:connector-curvature="0" />
          </symbol>
          <symbol
             id="textext-5697ff8a-5"
             overflow="visible"
             style="overflow:visible">
            <path
               id="path24960"
               d="m 3.296875,2.390625 c 0,-0.03125 0,-0.046875 -0.171875,-0.21875 C 1.890625,0.921875 1.5625,-0.96875 1.5625,-2.5 c 0,-1.734375 0.375,-3.46875 1.609375,-4.703125 0.125,-0.125 0.125,-0.140625 0.125,-0.171875 0,-0.078125 -0.03125,-0.109375 -0.09375,-0.109375 -0.109375,0 -1,0.6875 -1.59375,1.953125 -0.5,1.09375 -0.625,2.203125 -0.625,3.03125 0,0.78125 0.109375,1.984375 0.65625,3.125 C 2.25,1.84375 3.09375,2.5 3.203125,2.5 c 0.0625,0 0.09375,-0.03125 0.09375,-0.109375 z m 0,0"
               style="stroke:none"
               inkscape:connector-curvature="0" />
          </symbol>
          <symbol
             id="textext-5697ff8a-6"
             overflow="visible"
             style="overflow:visible">
            <path
               id="path24963"
               d="m 2.875,-2.5 c 0,-0.765625 -0.109375,-1.96875 -0.65625,-3.109375 -0.59375,-1.21875 -1.453125,-1.875 -1.546875,-1.875 -0.0625,0 -0.109375,0.046875 -0.109375,0.109375 0,0.03125 0,0.046875 0.1875,0.234375 0.984375,0.984375 1.546875,2.5625 1.546875,4.640625 0,1.71875 -0.359375,3.46875 -1.59375,4.71875 C 0.5625,2.34375 0.5625,2.359375 0.5625,2.390625 0.5625,2.453125 0.609375,2.5 0.671875,2.5 0.765625,2.5 1.671875,1.8125 2.25,0.546875 2.765625,-0.546875 2.875,-1.65625 2.875,-2.5 Z m 0,0"
               style="stroke:none"
               inkscape:connector-curvature="0" />
          </symbol>
          <symbol
             id="textext-5697ff8a-7"
             overflow="visible"
             style="overflow:visible">
            <path
               id="path24966"
               d=""
               style="stroke:none"
               inkscape:connector-curvature="0" />
          </symbol>
          <symbol
             id="textext-5697ff8a-8"
             overflow="visible"
             style="overflow:visible">
            <path
               id="path24969"
               d="M 5.140625,17.421875 C 5.15625,17.4375 5.25,17.53125 5.25,17.53125 l 0.21875,0 c 0.03125,0 0.109375,0 0.109375,-0.09375 0,-0.04687 -0.015625,-0.0625 -0.03125,-0.09375 -0.359375,-0.359375 -0.90625,-0.90625 -1.515625,-2 -1.078125,-1.921875 -1.484375,-4.375 -1.484375,-6.765625 0,-4.4375 1.265625,-7.03125 3,-8.796875 0.03125,-0.03125 0.03125,-0.0625 0.03125,-0.078125 0,-0.109375 -0.0625,-0.109375 -0.1875,-0.109375 -0.125,0 -0.140625,0 -0.234375,0.09375 C 4.203125,0.5 3.140625,1.890625 2.453125,3.984375 2.03125,5.296875 1.796875,6.90625 1.796875,8.5625 c 0,2.359375 0.421875,5.03125 1.984375,7.34375 0.28125,0.390625 0.640625,0.796875 0.640625,0.8125 C 4.53125,16.84375 4.671875,17 4.75,17.0625 Z m 0,0"
               style="stroke:none"
               inkscape:connector-curvature="0" />
          </symbol>
          <symbol
             id="textext-5697ff8a-9"
             overflow="visible"
             style="overflow:visible">
            <path
               id="path24972"
               d="m 4.140625,8.5625 c 0,-2.859375 -0.65625,-5.90625 -2.625,-8.140625 C 1.375,0.265625 1,-0.125 0.765625,-0.34375 c -0.0625,-0.0625 -0.09375,-0.0625 -0.21875,-0.0625 -0.09375,0 -0.1875,0 -0.1875,0.109375 0,0.03125 0.046875,0.078125 0.0625,0.09375 0.328125,0.359375 0.875,0.90625 1.484375,2 1.078125,1.90625 1.484375,4.375 1.484375,6.765625 0,4.328125 -1.203125,6.96875 -2.984375,8.796875 C 0.375,17.375 0.359375,17.40625 0.359375,17.4375 c 0,0.09375 0.09375,0.09375 0.1875,0.09375 0.125,0 0.15625,0 0.234375,-0.07813 0.953125,-0.8125 2.015625,-2.203125 2.703125,-4.296875 0.4375,-1.375 0.65625,-2.984375 0.65625,-4.59375 z m 0,0"
               style="stroke:none"
               inkscape:connector-curvature="0" />
          </symbol>
          <symbol
             id="textext-5697ff8a-10"
             overflow="visible"
             style="overflow:visible">
            <path
               id="path24975"
               d=""
               style="stroke:none"
               inkscape:connector-curvature="0" />
          </symbol>
          <symbol
             id="textext-5697ff8a-11"
             overflow="visible"
             style="overflow:visible">
            <path
               id="path24978"
               d="m 0.515625,0.84375 c -0.046875,0.203125 -0.0625,0.25 -0.328125,0.25 -0.09375,0 -0.1875,0 -0.1875,0.15625 0,0.078125 0.0625,0.109375 0.09375,0.109375 0.171875,0 0.40625,-0.03125 0.59375,-0.03125 0.234375,0 0.5,0.03125 0.734375,0.03125 0.0625,0 0.140625,-0.03125 0.140625,-0.15625 0,-0.109375 -0.09375,-0.109375 -0.1875,-0.109375 -0.15625,0 -0.34375,0 -0.34375,-0.078125 0,-0.03125 0.0625,-0.21875 0.078125,-0.3125 0.09375,-0.375 0.1875,-0.75 0.265625,-1.046875 0.078125,0.140625 0.296875,0.40625 0.71875,0.40625 0.84375,0 1.78125,-0.9375 1.78125,-1.96875 0,-0.8125 -0.5625,-1.171875 -1.03125,-1.171875 -0.4375,0 -0.8125,0.296875 -1,0.5 -0.109375,-0.40625 -0.5,-0.5 -0.71875,-0.5 -0.265625,0 -0.4375,0.1875 -0.546875,0.375 -0.140625,0.234375 -0.25,0.65625 -0.25,0.703125 0,0.078125 0.09375,0.078125 0.125,0.078125 0.09375,0 0.09375,-0.015625 0.140625,-0.203125 0.109375,-0.40625 0.25,-0.75 0.515625,-0.75 0.1875,0 0.234375,0.15625 0.234375,0.34375 0,0.078125 -0.015625,0.15625 -0.03125,0.203125 z M 1.84375,-2.234375 C 2.25,-2.78125 2.59375,-2.875 2.8125,-2.875 c 0.28125,0 0.515625,0.203125 0.515625,0.671875 0,0.28125 -0.15625,1 -0.359375,1.40625 -0.1875,0.34375 -0.515625,0.671875 -0.875,0.671875 -0.5,0 -0.625,-0.53125 -0.625,-0.609375 0,-0.03125 0.015625,-0.078125 0.015625,-0.109375 z m 0,0"
               style="stroke:none"
               inkscape:connector-curvature="0" />
          </symbol>
          <symbol
             id="textext-5697ff8a-12"
             overflow="visible"
             style="overflow:visible">
            <path
               id="path24981"
               d=""
               style="stroke:none"
               inkscape:connector-curvature="0" />
          </symbol>
          <symbol
             id="textext-5697ff8a-13"
             overflow="visible"
             style="overflow:visible">
            <path
               id="path24984"
               d="M 7.609375,-6.046875 C 7.703125,-6.40625 7.71875,-6.5 8.4375,-6.5 c 0.265625,0 0.34375,0 0.34375,-0.203125 0,-0.109375 -0.109375,-0.109375 -0.140625,-0.109375 -0.28125,0 -1,0.03125 -1.28125,0.03125 -0.28125,0 -0.984375,-0.03125 -1.28125,-0.03125 -0.078125,0 -0.1875,0 -0.1875,0.203125 0,0.109375 0.09375,0.109375 0.28125,0.109375 0.015625,0 0.203125,0 0.375,0.015625 0.1875,0.03125 0.265625,0.03125 0.265625,0.171875 0,0.03125 0,0.046875 -0.03125,0.1875 l -0.59375,2.421875 -3.046875,0 0.59375,-2.34375 C 3.8125,-6.40625 3.84375,-6.5 4.5625,-6.5 c 0.265625,0 0.34375,0 0.34375,-0.203125 0,-0.109375 -0.109375,-0.109375 -0.140625,-0.109375 -0.28125,0 -1,0.03125 -1.28125,0.03125 -0.28125,0 -0.984375,-0.03125 -1.28125,-0.03125 -0.078125,0 -0.1875,0 -0.1875,0.203125 0,0.109375 0.09375,0.109375 0.28125,0.109375 0.015625,0 0.203125,0 0.375,0.015625 0.171875,0.03125 0.265625,0.03125 0.265625,0.171875 0,0.03125 0,0.0625 -0.03125,0.1875 L 1.5625,-0.78125 c -0.09375,0.390625 -0.109375,0.46875 -0.90625,0.46875 -0.171875,0 -0.265625,0 -0.265625,0.203125 C 0.390625,0 0.515625,0 0.53125,0 0.8125,0 1.515625,-0.03125 1.796875,-0.03125 2,-0.03125 2.21875,-0.015625 2.4375,-0.015625 2.65625,-0.015625 2.875,0 3.078125,0 3.15625,0 3.28125,0 3.28125,-0.203125 3.28125,-0.3125 3.1875,-0.3125 3,-0.3125 c -0.375,0 -0.640625,0 -0.640625,-0.171875 0,-0.0625 0.015625,-0.109375 0.015625,-0.171875 l 0.6875,-2.734375 3.03125,0 c -0.40625,1.65625 -0.640625,2.609375 -0.6875,2.75 C 5.3125,-0.3125 5.125,-0.3125 4.5,-0.3125 c -0.140625,0 -0.234375,0 -0.234375,0.203125 C 4.265625,0 4.390625,0 4.40625,0 4.6875,0 5.390625,-0.03125 5.671875,-0.03125 5.875,-0.03125 6.09375,-0.015625 6.3125,-0.015625 6.53125,-0.015625 6.75,0 6.953125,0 7.03125,0 7.15625,0 7.15625,-0.203125 7.15625,-0.3125 7.0625,-0.3125 6.875,-0.3125 c -0.359375,0 -0.640625,0 -0.640625,-0.171875 0,-0.0625 0.015625,-0.109375 0.03125,-0.171875 z m 0,0"
               style="stroke:none"
               inkscape:connector-curvature="0" />
          </symbol>
          <symbol
             id="textext-5697ff8a-14"
             overflow="visible"
             style="overflow:visible">
            <path
               id="path24987"
               d="M 7.0625,-2.328125 C 7.078125,-2.375 7.109375,-2.4375 7.109375,-2.46875 c 0,0 0,-0.109375 -0.125,-0.109375 -0.09375,0 -0.109375,0.0625 -0.125,0.125 -0.65625,1.46875 -1.015625,2.140625 -2.71875,2.140625 l -1.453125,0 c -0.140625,0 -0.171875,0 -0.21875,0 -0.109375,-0.015625 -0.140625,-0.03125 -0.140625,-0.109375 0,-0.03125 0,-0.046875 0.046875,-0.21875 L 3.0625,-3.375 l 0.984375,0 c 0.84375,0 0.84375,0.21875 0.84375,0.46875 0,0.0625 0,0.1875 -0.0625,0.484375 C 4.8125,-2.375 4.796875,-2.34375 4.796875,-2.3125 c 0,0.046875 0.03125,0.109375 0.125,0.109375 C 5,-2.203125 5.03125,-2.25 5.078125,-2.40625 l 0.5625,-2.328125 c 0,-0.0625 -0.046875,-0.109375 -0.125,-0.109375 -0.078125,0 -0.109375,0.0625 -0.125,0.171875 -0.21875,0.765625 -0.390625,1 -1.3125,1 l -0.9375,0 0.59375,-2.40625 C 3.828125,-6.4375 3.84375,-6.46875 4.28125,-6.46875 l 1.40625,0 c 1.203125,0 1.515625,0.28125 1.515625,1.109375 0,0.234375 0,0.25 -0.046875,0.53125 0,0.046875 -0.015625,0.125 -0.015625,0.171875 0,0.046875 0.03125,0.125 0.125,0.125 0.109375,0 0.125,-0.0625 0.140625,-0.25 L 7.609375,-6.515625 C 7.640625,-6.78125 7.59375,-6.78125 7.34375,-6.78125 l -5.046875,0 c -0.1875,0 -0.296875,0 -0.296875,0.203125 0,0.109375 0.09375,0.109375 0.28125,0.109375 0.375,0 0.65625,0 0.65625,0.171875 0,0.046875 0,0.0625 -0.0625,0.25 L 1.5625,-0.78125 c -0.09375,0.390625 -0.109375,0.46875 -0.90625,0.46875 -0.171875,0 -0.28125,0 -0.28125,0.1875 C 0.375,0 0.46875,0 0.65625,0 l 5.171875,0 c 0.234375,0 0.25,-0.015625 0.3125,-0.171875 z m 0,0"
               style="stroke:none"
               inkscape:connector-curvature="0" />
          </symbol>
          <symbol
             id="textext-5697ff8a-15"
             overflow="visible"
             style="overflow:visible">
            <path
               id="path24990"
               d=""
               style="stroke:none"
               inkscape:connector-curvature="0" />
          </symbol>
          <symbol
             id="textext-5697ff8a-16"
             overflow="visible"
             style="overflow:visible">
            <path
               id="path24993"
               d="M 2.46875,-5.21875 C 1.15625,-4.296875 0.796875,-2.8125 0.796875,-1.75 c 0,0.984375 0.296875,2.515625 1.671875,3.484375 0.0625,0 0.140625,0 0.140625,-0.078125 0,-0.046875 -0.015625,-0.0625 -0.0625,-0.109375 C 1.609375,0.703125 1.28125,-0.46875 1.28125,-1.734375 1.28125,-3.625 2,-4.546875 2.5625,-5.0625 2.59375,-5.09375 2.609375,-5.109375 2.609375,-5.140625 2.609375,-5.21875 2.53125,-5.21875 2.46875,-5.21875 Z m 0,0"
               style="stroke:none"
               inkscape:connector-curvature="0" />
          </symbol>
          <symbol
             id="textext-5697ff8a-17"
             overflow="visible"
             style="overflow:visible">
            <path
               id="path24996"
               d="m 0.625,-5.21875 c -0.046875,0 -0.125,0 -0.125,0.078125 0,0.03125 0.015625,0.046875 0.0625,0.109375 0.59375,0.546875 1.265625,1.484375 1.265625,3.28125 0,1.453125 -0.453125,2.5625 -1.203125,3.234375 -0.125,0.125 -0.125,0.125 -0.125,0.171875 0,0.03125 0.015625,0.078125 0.078125,0.078125 0.09375,0 0.75,-0.453125 1.21875,-1.328125 0.296875,-0.578125 0.5,-1.328125 0.5,-2.140625 C 2.296875,-2.71875 2,-4.25 0.625,-5.21875 Z m 0,0"
               style="stroke:none"
               inkscape:connector-curvature="0" />
          </symbol>
          <symbol
             id="textext-5697ff8a-18"
             overflow="visible"
             style="overflow:visible">
            <path
               id="path24999"
               d="m 3.515625,-1.265625 -0.234375,0 c -0.015625,0.15625 -0.09375,0.5625 -0.1875,0.625 -0.046875,0.046875 -0.578125,0.046875 -0.6875,0.046875 l -1.28125,0 c 0.734375,-0.640625 0.984375,-0.84375 1.390625,-1.171875 0.515625,-0.40625 1,-0.84375 1,-1.5 0,-0.84375 -0.734375,-1.359375 -1.625,-1.359375 -0.859375,0 -1.453125,0.609375 -1.453125,1.25 0,0.34375 0.296875,0.390625 0.375,0.390625 0.15625,0 0.359375,-0.125 0.359375,-0.375 0,-0.125 -0.046875,-0.375 -0.40625,-0.375 C 0.984375,-4.21875 1.453125,-4.375 1.78125,-4.375 c 0.703125,0 1.0625,0.546875 1.0625,1.109375 0,0.609375 -0.4375,1.078125 -0.65625,1.328125 L 0.515625,-0.265625 C 0.4375,-0.203125 0.4375,-0.1875 0.4375,0 l 2.875,0 z m 0,0"
               style="stroke:none"
               inkscape:connector-curvature="0" />
          </symbol>
          <symbol
             id="textext-5697ff8a-19"
             overflow="visible"
             style="overflow:visible">
            <path
               id="path25002"
               d="M 3.59375,-2.21875 C 3.59375,-2.984375 3.5,-3.546875 3.1875,-4.03125 2.96875,-4.34375 2.53125,-4.625 1.984375,-4.625 c -1.625,0 -1.625,1.90625 -1.625,2.40625 0,0.5 0,2.359375 1.625,2.359375 1.609375,0 1.609375,-1.859375 1.609375,-2.359375 z M 1.984375,-0.0625 c -0.328125,0 -0.75,-0.1875 -0.890625,-0.75 C 1,-1.21875 1,-1.796875 1,-2.3125 1,-2.828125 1,-3.359375 1.09375,-3.734375 1.25,-4.28125 1.6875,-4.4375 1.984375,-4.4375 c 0.375,0 0.734375,0.234375 0.859375,0.640625 0.109375,0.375 0.125,0.875 0.125,1.484375 0,0.515625 0,1.03125 -0.09375,1.46875 -0.140625,0.640625 -0.609375,0.78125 -0.890625,0.78125 z m 0,0"
               style="stroke:none"
               inkscape:connector-curvature="0" />
          </symbol>
        </g>
      </defs>
      <g
         id="textext-5697ff8a-20">
        <g
           id="g25005"
           style="fill:black;fill-opacity:1">
          <use
             id="use25007"
             y="120.319"
             x="90"
             xlink:href="#textext-5697ff8a-1"
             width="100%"
             height="100%" />
        </g>
        <g
           id="g25009"
           style="fill:black;fill-opacity:1">
          <use
             id="use25011"
             y="120.319"
             x="96.368095"
             xlink:href="#textext-5697ff8a-2"
             width="100%"
             height="100%" />
        </g>
        <g
           id="g25013"
           style="fill:black;fill-opacity:1">
          <use
             id="use25015"
             y="109.26"
             x="101.927"
             xlink:href="#textext-5697ff8a-8"
             width="100%"
             height="100%" />
        </g>
        <g
           id="g25017"
           style="fill:black;fill-opacity:1">
          <use
             id="use25019"
             y="116.704"
             x="107.877"
             xlink:href="#textext-5697ff8a-11"
             width="100%"
             height="100%" />
        </g>
        <g
           id="g25021"
           style="fill:black;fill-opacity:1">
          <use
             id="use25023"
             y="120.319"
             x="112.482"
             xlink:href="#textext-5697ff8a-3"
             width="100%"
             height="100%" />
        </g>
        <g
           id="g25025"
           style="fill:black;fill-opacity:1">
          <use
             id="use25027"
             y="120.319"
             x="118.709"
             xlink:href="#textext-5697ff8a-13"
             width="100%"
             height="100%" />
        </g>
        <g
           id="g25029"
           style="fill:black;fill-opacity:1">
          <use
             id="use25031"
             y="115.144"
             x="127.8"
             xlink:href="#textext-5697ff8a-16"
             width="100%"
             height="100%" />
        </g>
        <g
           id="g25033"
           style="fill:black;fill-opacity:1">
          <use
             id="use25035"
             y="115.144"
             x="130.91299"
             xlink:href="#textext-5697ff8a-11"
             width="100%"
             height="100%" />
        </g>
        <g
           id="g25037"
           style="fill:black;fill-opacity:1">
          <use
             id="use25039"
             y="115.144"
             x="135.02"
             xlink:href="#textext-5697ff8a-17"
             width="100%"
             height="100%" />
        </g>
        <g
           id="g25041"
           style="fill:black;fill-opacity:1">
          <use
             id="use25043"
             y="122.976"
             x="126.99"
             xlink:href="#textext-5697ff8a-18"
             width="100%"
             height="100%" />
        </g>
        <g
           id="g25045"
           style="fill:black;fill-opacity:1">
          <use
             id="use25047"
             y="109.26"
             x="138.632"
             xlink:href="#textext-5697ff8a-9"
             width="100%"
             height="100%" />
        </g>
        <g
           id="g25049"
           style="fill:black;fill-opacity:1">
          <use
             id="use25051"
             y="120.319"
             x="147.349"
             xlink:href="#textext-5697ff8a-4"
             width="100%"
             height="100%" />
        </g>
        <g
           id="g25053"
           style="fill:black;fill-opacity:1">
          <use
             id="use25055"
             y="120.319"
             x="157.86501"
             xlink:href="#textext-5697ff8a-14"
             width="100%"
             height="100%" />
        </g>
        <g
           id="g25057"
           style="fill:black;fill-opacity:1">
          <use
             id="use25059"
             y="121.813"
             x="165.21899"
             xlink:href="#textext-5697ff8a-19"
             width="100%"
             height="100%" />
        </g>
        <g
           id="g25061"
           style="fill:black;fill-opacity:1">
          <use
             id="use25063"
             y="120.319"
             x="169.689"
             xlink:href="#textext-5697ff8a-5"
             width="100%"
             height="100%" />
        </g>
        <g
           id="g25065"
           style="fill:black;fill-opacity:1">
          <use
             id="use25067"
             y="120.319"
             x="173.563"
             xlink:href="#textext-5697ff8a-13"
             width="100%"
             height="100%" />
        </g>
        <g
           id="g25069"
           style="fill:black;fill-opacity:1">
          <use
             id="use25071"
             y="115.144"
             x="182.65401"
             xlink:href="#textext-5697ff8a-16"
             width="100%"
             height="100%" />
        </g>
        <g
           id="g25073"
           style="fill:black;fill-opacity:1">
          <use
             id="use25075"
             y="115.144"
             x="185.767"
             xlink:href="#textext-5697ff8a-11"
             width="100%"
             height="100%" />
        </g>
        <g
           id="g25077"
           style="fill:black;fill-opacity:1">
          <use
             id="use25079"
             y="115.144"
             x="189.87399"
             xlink:href="#textext-5697ff8a-17"
             width="100%"
             height="100%" />
        </g>
        <g
           id="g25081"
           style="fill:black;fill-opacity:1">
          <use
             id="use25083"
             y="122.976"
             x="181.845"
             xlink:href="#textext-5697ff8a-18"
             width="100%"
             height="100%" />
        </g>
        <g
           id="g25085"
           style="fill:black;fill-opacity:1">
          <use
             id="use25087"
             y="120.319"
             x="193.48599"
             xlink:href="#textext-5697ff8a-6"
             width="100%"
             height="100%" />
        </g>
      </g>
    </g>
    <g
       id="g5317"
       transform="matrix(2.6890756,0,0,2.6890756,-100.74497,128.04836)"
       ns0:preamble="/home/ward/Documents/phd/PhD/preamble.tex"
       ns0:text="approximately $N$-representable">
      <defs
         id="defs5319">
        <g
           id="g5321">
          <symbol
             id="textext-7cb82493-0"
             overflow="visible"
             style="overflow:visible">
            <path
               id="path5324"
               d="M 0.5,-6.015625 2.1875,-3.484375 0.5,-0.953125 Z M 0.796875,-0.5 2.5,-3.03125 4.1875,-0.5 Z m 2,-2.984375 1.6875,-2.53125 0,5.0625 z M 2.5,-3.921875 l -1.703125,-2.53125 3.390625,0 z M 0,0 l 4.984375,0 0,-6.953125 -4.984375,0 z m 0,0"
               style="stroke:none"
               inkscape:connector-curvature="0" />
          </symbol>
          <symbol
             id="textext-7cb82493-1"
             overflow="visible"
             style="overflow:visible">
            <path
               id="path5327"
               d="m 3.09375,-2.25 -0.046875,1.1875 c 0,0.140625 -0.0625,0.203125 -0.140625,0.265625 C 2.625,-0.59375 2.296875,-0.40625 2,-0.40625 c -0.453125,0 -0.75,-0.296875 -0.75,-0.609375 0,-0.453125 0.21875,-0.78125 1,-1 z m 0,1.765625 C 3.203125,-0.09375 3.5,0.09375 3.875,0.09375 c 0.234375,0 0.546875,-0.046875 0.796875,-0.296875 l -0.09375,-0.25 C 4.46875,-0.421875 4.390625,-0.40625 4.3125,-0.40625 4.21875,-0.40625 4.09375,-0.421875 4.03125,-0.484375 3.921875,-0.5625 3.859375,-0.8125 3.859375,-1.25 c 0,-0.296875 0.03125,-1.40625 0.03125,-1.515625 C 3.890625,-4.109375 3,-4.375 2.25,-4.375 1.484375,-4.375 1.03125,-4 0.78125,-3.796875 l -0.03125,0.03125 0.171875,0.671875 0.125,0.015625 c 0.28125,-0.453125 0.625,-0.84375 1.09375,-0.84375 0.359375,0 0.953125,0.046875 0.953125,1.171875 0,0.0625 -0.03125,0.109375 -0.0625,0.125 l -0.921875,0.203125 c -1.015625,0.234375 -1.65625,0.765625 -1.65625,1.4375 0,0.75 0.5,1.078125 1.234375,1.078125 0.5625,0 0.828125,-0.125 1.359375,-0.578125 z m 0,0"
               style="stroke:none"
               inkscape:connector-curvature="0" />
          </symbol>
          <symbol
             id="textext-7cb82493-2"
             overflow="visible"
             style="overflow:visible">
            <path
               id="path5330"
               d="m 1.609375,-2.9375 c 0.21875,-0.515625 0.8125,-0.984375 1.203125,-0.984375 0.671875,0 1.03125,0.625 1.03125,1.75 0,0.8125 -0.234375,1.875 -1.296875,1.875 -0.171875,0 -0.578125,-0.046875 -0.9375,-0.453125 z m 0,-0.578125 0,-0.71875 c 0,-0.078125 0,-0.109375 -0.046875,-0.109375 -0.234375,0.046875 -0.578125,0.0625 -0.8125,0.03125 l -0.015625,0.03125 c 0.0625,0.4375 0.078125,1.1875 0.078125,1.9375 l 0,2.65625 c 0,0.75 -0.015625,1.46875 -0.078125,2 L 0.75,2.34375 C 0.875,2.328125 1.09375,2.3125 1.21875,2.3125 c 0.109375,0 0.34375,0.015625 0.46875,0.03125 L 1.703125,2.3125 c -0.0625,-0.5625 -0.09375,-1.25 -0.09375,-2 l 0,-0.4375 c 0.265625,0.140625 0.640625,0.21875 1,0.21875 1.3125,0 2.109375,-0.984375 2.109375,-2.390625 0,-1.0625 -0.625,-2.078125 -1.734375,-2.078125 -0.390625,0 -0.890625,0.203125 -1.34375,0.890625 z m 0,0"
               style="stroke:none"
               inkscape:connector-curvature="0" />
          </symbol>
          <symbol
             id="textext-7cb82493-3"
             overflow="visible"
             style="overflow:visible">
            <path
               id="path5333"
               d="m 1.671875,-3.328125 0,-0.90625 c 0,-0.078125 -0.015625,-0.109375 -0.0625,-0.109375 -0.21875,0.046875 -0.578125,0.0625 -0.8125,0.03125 L 0.78125,-4.28125 c 0.0625,0.4375 0.09375,1.1875 0.09375,1.9375 l 0,0.546875 C 0.875,-1.046875 0.859375,-0.53125 0.78125,0 L 0.796875,0.03125 C 0.921875,0.015625 1.140625,0 1.265625,0 c 0.125,0 0.34375,0.015625 0.46875,0.03125 L 1.75,0 C 1.6875,-0.5625 1.671875,-1.03125 1.671875,-1.796875 l 0,-0.515625 c 0,-0.421875 0.125,-0.65625 0.328125,-0.984375 0.15625,-0.21875 0.375,-0.359375 0.5625,-0.359375 0.203125,0 0.390625,0.03125 0.515625,0.140625 L 3.15625,-3.53125 3.359375,-4.265625 3.3125,-4.3125 C 3.15625,-4.359375 3.140625,-4.375 2.953125,-4.375 c -0.53125,0 -0.8125,0.3125 -1.265625,1.0625 z m 0,0"
               style="stroke:none"
               inkscape:connector-curvature="0" />
          </symbol>
          <symbol
             id="textext-7cb82493-4"
             overflow="visible"
             style="overflow:visible">
            <path
               id="path5336"
               d="m 0.375,-2.046875 c 0,1.203125 0.796875,2.140625 2.125,2.140625 1.3125,0 2.109375,-0.921875 2.109375,-2.234375 C 4.609375,-3.484375 3.875,-4.375 2.53125,-4.375 1.21875,-4.375 0.375,-3.453125 0.375,-2.046875 Z m 2.09375,-1.9375 c 1.046875,0 1.265625,0.828125 1.265625,2.03125 0,0.953125 -0.484375,1.65625 -1.15625,1.65625 -1.046875,0 -1.328125,-1.15625 -1.328125,-1.921875 0,-0.859375 0.28125,-1.765625 1.21875,-1.765625 z m 0,0"
               style="stroke:none"
               inkscape:connector-curvature="0" />
          </symbol>
          <symbol
             id="textext-7cb82493-5"
             overflow="visible"
             style="overflow:visible">
            <path
               id="path5339"
               d="M 1.84375,-2.0625 0.28125,0.03125 C 0.375,0.015625 0.53125,0 0.640625,0 c 0.09375,0 0.34375,0.015625 0.4375,0.03125 0.375,-0.5625 0.671875,-1.125 1.078125,-1.671875 C 2.546875,-1.09375 2.84375,-0.53125 3.203125,0.03125 3.359375,0.015625 3.5625,0 3.71875,0 3.875,0 4.140625,0.015625 4.28125,0.03125 3.6875,-0.75 3.203125,-1.515625 2.65625,-2.296875 L 4.296875,-4.3125 c -0.125,0.03125 -0.34375,0.03125 -0.453125,0.03125 -0.109375,0 -0.265625,0 -0.359375,-0.03125 -0.390625,0.5625 -0.703125,1.09375 -1.125,1.625 -0.390625,-0.53125 -0.671875,-1.0625 -1,-1.625 -0.171875,0.03125 -0.375,0.03125 -0.546875,0.03125 -0.15625,0 -0.40625,0 -0.578125,-0.03125 z m 0,0"
               style="stroke:none"
               inkscape:connector-curvature="0" />
          </symbol>
          <symbol
             id="textext-7cb82493-6"
             overflow="visible"
             style="overflow:visible">
            <path
               id="path5342"
               d="m 0.796875,-5.953125 c 0,0.265625 0.234375,0.515625 0.515625,0.515625 0.265625,0 0.5,-0.25 0.5,-0.515625 0,-0.265625 -0.234375,-0.5 -0.5,-0.5 -0.28125,0 -0.515625,0.234375 -0.515625,0.5 z m 0.09375,3.609375 0,0.546875 C 0.890625,-1.046875 0.875,-0.53125 0.8125,0 L 0.828125,0.03125 C 0.953125,0.015625 1.171875,0 1.296875,0 c 0.125,0 0.34375,0.015625 0.46875,0.03125 L 1.78125,0 C 1.71875,-0.5625 1.6875,-1.03125 1.6875,-1.796875 l 0,-0.703125 c 0,-0.75 0.03125,-1.109375 0.09375,-1.71875 0,-0.09375 0,-0.09375 -0.09375,-0.09375 -0.21875,0.015625 -0.65625,0.03125 -0.859375,0 L 0.8125,-4.28125 c 0.0625,0.4375 0.078125,1.1875 0.078125,1.9375 z m 0,0"
               style="stroke:none"
               inkscape:connector-curvature="0" />
          </symbol>
          <symbol
             id="textext-7cb82493-7"
             overflow="visible"
             style="overflow:visible">
            <path
               id="path5345"
               d="m 1.609375,-3.515625 0,-0.71875 c 0,-0.078125 0,-0.109375 -0.046875,-0.109375 -0.234375,0.046875 -0.578125,0.0625 -0.8125,0.03125 l -0.015625,0.03125 c 0.0625,0.4375 0.078125,1.1875 0.078125,1.9375 l 0,0.546875 c 0,0.75 0,1.265625 -0.078125,1.796875 L 0.75,0.03125 C 0.875,0.015625 1.09375,0 1.21875,0 1.328125,0 1.5625,0.015625 1.6875,0.03125 L 1.703125,0 C 1.625,-0.5625 1.609375,-1.03125 1.609375,-1.796875 l 0,-1.203125 c 0.46875,-0.484375 1.03125,-0.78125 1.375,-0.78125 0.390625,0 0.671875,0.21875 0.671875,0.890625 l 0,1.09375 c 0,0.75 -0.015625,1.265625 -0.09375,1.796875 L 3.578125,0.03125 C 3.703125,0.015625 3.921875,0 4.046875,0 c 0.125,0 0.34375,0.015625 0.46875,0.03125 L 4.53125,0 C 4.453125,-0.5625 4.453125,-1.03125 4.453125,-1.796875 l 0,-1 c 0,-0.140625 0,-0.265625 -0.015625,-0.390625 0.484375,-0.515625 0.875,-0.59375 1.265625,-0.59375 0.53125,0 0.796875,0.21875 0.796875,0.890625 l 0,1.09375 C 6.5,-1.046875 6.484375,-0.53125 6.40625,0 L 6.4375,0.03125 C 6.546875,0.015625 6.78125,0 6.890625,0 7.015625,0 7.25,0.015625 7.359375,0.03125 L 7.390625,0 C 7.3125,-0.5625 7.296875,-1.03125 7.296875,-1.796875 l 0,-1 c 0,-0.875 -0.15625,-1.578125 -1.234375,-1.578125 -0.546875,0 -1.125,0.1875 -1.6875,0.78125 C 4.28125,-4.0625 3.875,-4.375 3.3125,-4.375 c -0.609375,0 -1.203125,0.390625 -1.671875,0.890625 z m 0,0"
               style="stroke:none"
               inkscape:connector-curvature="0" />
          </symbol>
          <symbol
             id="textext-7cb82493-8"
             overflow="visible"
             style="overflow:visible">
            <path
               id="path5348"
               d="m 0.953125,-4.28125 c -0.203125,0 -0.421875,0 -0.546875,-0.015625 -0.0625,0.15625 -0.109375,0.265625 -0.21875,0.40625 L 0.234375,-3.8125 C 0.40625,-3.828125 0.71875,-3.84375 0.953125,-3.84375 l 0,1.375 c 0,0.59375 -0.03125,1.3125 -0.03125,1.609375 0,0.65625 0.40625,0.953125 0.875,0.953125 0.421875,0 0.734375,-0.09375 1.15625,-0.359375 l -0.125,-0.25 C 2.515625,-0.40625 2.296875,-0.40625 2.046875,-0.4375 1.796875,-0.484375 1.71875,-0.71875 1.71875,-1.25 1.71875,-1.5625 1.75,-1.984375 1.75,-2.578125 l 0,-1.265625 0.375,0 c 0.234375,0 0.59375,0.015625 0.71875,0.03125 0.03125,-0.171875 0.0625,-0.265625 0.109375,-0.421875 L 2.90625,-4.296875 C 2.734375,-4.28125 2.4375,-4.28125 2.21875,-4.28125 l -0.46875,0 c 0,-0.75 0,-0.875 0.046875,-1.453125 0,-0.0625 -0.03125,-0.09375 -0.09375,-0.09375 -0.25,0.09375 -0.375,0.203125 -0.703125,0.25 l -0.015625,0.03125 c -0.015625,0.34375 -0.03125,0.6875 -0.03125,1.265625 z m 0,0"
               style="stroke:none"
               inkscape:connector-curvature="0" />
          </symbol>
          <symbol
             id="textext-7cb82493-9"
             overflow="visible"
             style="overflow:visible">
            <path
               id="path5351"
               d="m 1.25,-2.71875 c 0.171875,-1.046875 0.828125,-1.265625 1.125,-1.265625 0.40625,0 0.84375,0.375 0.84375,1.125 0,0.09375 -0.03125,0.140625 -0.140625,0.140625 z m 2.65625,1.6875 c -0.34375,0.375 -0.8125,0.546875 -1.359375,0.546875 -0.34375,0 -0.8125,-0.140625 -1.09375,-0.578125 C 1.28125,-1.328125 1.21875,-1.75 1.21875,-2.328125 l 2.703125,0 c 0.109375,0 0.1875,-0.046875 0.1875,-0.171875 0,-0.828125 -0.40625,-1.875 -1.734375,-1.875 -1.015625,0 -2.03125,0.828125 -2.03125,2.296875 0,0.5625 0.109375,1.125 0.4375,1.515625 0.34375,0.40625 0.921875,0.65625 1.59375,0.65625 0.71875,0 1.359375,-0.359375 1.734375,-0.875 z m 0,0"
               style="stroke:none"
               inkscape:connector-curvature="0" />
          </symbol>
          <symbol
             id="textext-7cb82493-10"
             overflow="visible"
             style="overflow:visible">
            <path
               id="path5354"
               d="m 0.890625,-2 c 0,0.75 0,1.46875 -0.078125,2 L 0.828125,0.03125 C 0.953125,0.015625 1.171875,0 1.296875,0 c 0.125,0 0.34375,0.015625 0.46875,0.03125 L 1.78125,0 C 1.703125,-0.5625 1.6875,-1.25 1.6875,-2 l 0,-2.984375 c 0,-0.75 0.046875,-1.25 0.09375,-1.875 0,-0.0625 -0.03125,-0.09375 -0.09375,-0.09375 -0.234375,0.09375 -0.453125,0.171875 -0.859375,0.1875 L 0.8125,-6.734375 c 0.078125,0.4375 0.078125,1.171875 0.078125,1.921875 z m 0,0"
               style="stroke:none"
               inkscape:connector-curvature="0" />
          </symbol>
          <symbol
             id="textext-7cb82493-11"
             overflow="visible"
             style="overflow:visible">
            <path
               id="path5357"
               d="m 0.28125,-4.3125 c 0.390625,0.890625 1.578125,3.46875 1.9375,4.40625 -0.328125,0.75 -0.734375,1.515625 -1.1875,2.265625 0.109375,-0.03125 0.25,-0.046875 0.359375,-0.046875 0.09375,0 0.390625,0.015625 0.484375,0.046875 0.375,-1.25 2.5625,-6 2.890625,-6.671875 -0.09375,0.03125 -0.328125,0.03125 -0.421875,0.03125 -0.109375,0 -0.296875,0 -0.390625,-0.03125 -0.359375,1.125 -0.828125,2.40625 -1.3125,3.4375 l -0.015625,0 C 2.140625,-2.0625 1.65625,-3.171875 1.28125,-4.3125 c -0.125,0.03125 -0.34375,0.03125 -0.484375,0.03125 -0.125,0 -0.375,0 -0.515625,-0.03125 z m 0,0"
               style="stroke:none"
               inkscape:connector-curvature="0" />
          </symbol>
          <symbol
             id="textext-7cb82493-12"
             overflow="visible"
             style="overflow:visible">
            <path
               id="path5360"
               d="M 2.734375,-2.359375 C 2.859375,-2.359375 3,-2.609375 3,-2.71875 3,-2.796875 2.953125,-2.890625 2.859375,-2.890625 l -2.28125,0 c -0.125,0 -0.25,0.203125 -0.25,0.375 0,0.078125 0.0625,0.15625 0.15625,0.15625 z m 0,0"
               style="stroke:none"
               inkscape:connector-curvature="0" />
          </symbol>
          <symbol
             id="textext-7cb82493-13"
             overflow="visible"
             style="overflow:visible">
            <path
               id="path5363"
               d="m 0.5,-1 -0.171875,0.828125 c 0.5625,0.203125 1.125,0.265625 1.5,0.265625 1.375,0 1.703125,-0.8125 1.703125,-1.359375 0,-0.8125 -0.65625,-1.140625 -1.359375,-1.3125 C 1.796875,-2.65625 1.25,-2.84375 1.25,-3.34375 c 0,-0.421875 0.328125,-0.640625 0.75,-0.640625 0.515625,0 0.84375,0.421875 1.078125,0.6875 L 3.203125,-3.3125 3.40625,-4.046875 3.390625,-4.078125 C 3.09375,-4.234375 2.546875,-4.375 2.046875,-4.375 c -0.734375,0 -1.515625,0.390625 -1.515625,1.21875 0,0.796875 0.609375,1.046875 1.203125,1.21875 0.578125,0.15625 1,0.328125 1,0.8125 0,0.53125 -0.375,0.828125 -0.90625,0.828125 -0.484375,0 -0.90625,-0.328125 -1.1875,-0.71875 z m 0,0"
               style="stroke:none"
               inkscape:connector-curvature="0" />
          </symbol>
          <symbol
             id="textext-7cb82493-14"
             overflow="visible"
             style="overflow:visible">
            <path
               id="path5366"
               d="m 4.578125,-1.796875 c 0,-0.3125 0.03125,-0.6875 0.03125,-1 0,-1.046875 -0.34375,-1.578125 -1.234375,-1.578125 -0.390625,0 -1.09375,0.140625 -1.734375,0.890625 L 1.625,-3.515625 l 0,-0.71875 C 1.625,-4.3125 1.609375,-4.34375 1.5625,-4.34375 1.34375,-4.296875 0.984375,-4.28125 0.75,-4.3125 l -0.015625,0.03125 c 0.078125,0.4375 0.09375,1.1875 0.09375,1.9375 l 0,0.546875 c 0,0.75 -0.015625,1.265625 -0.09375,1.796875 L 0.75,0.03125 C 0.875,0.015625 1.109375,0 1.21875,0 1.34375,0 1.578125,0.015625 1.6875,0.03125 L 1.71875,0 C 1.640625,-0.5625 1.625,-1.03125 1.625,-1.796875 l 0,-1.15625 C 2.140625,-3.5625 2.71875,-3.78125 3.078125,-3.78125 c 0.5,0 0.703125,0.203125 0.703125,1.015625 l 0,0.96875 c 0,0.75 -0.015625,1.265625 -0.078125,1.796875 L 3.71875,0.03125 C 3.84375,0.015625 4.0625,0 4.1875,0 4.3125,0 4.53125,0.015625 4.65625,0.03125 L 4.671875,0 C 4.59375,-0.5625 4.578125,-1.03125 4.578125,-1.796875 Z m 0,0"
               style="stroke:none"
               inkscape:connector-curvature="0" />
          </symbol>
          <symbol
             id="textext-7cb82493-15"
             overflow="visible"
             style="overflow:visible">
            <path
               id="path5369"
               d="m 1.609375,-0.8125 0,-2.578125 C 2,-3.78125 2.25,-3.984375 2.65625,-3.984375 c 0.609375,0 1.15625,0.5 1.15625,1.75 0,1.234375 -0.375,1.9375 -1.3125,1.9375 -0.3125,0 -0.6875,-0.265625 -0.890625,-0.515625 z m 0,-4.171875 c 0,-0.734375 0.015625,-1.265625 0.0625,-1.875 0,-0.0625 -0.03125,-0.09375 -0.09375,-0.09375 -0.25,0.09375 -0.453125,0.171875 -0.859375,0.1875 l -0.015625,0.03125 C 0.78125,-6.296875 0.8125,-5.5625 0.8125,-4.8125 l 0,4.078125 c 0,0.390625 0,0.53125 -0.046875,0.75 0.0625,0.0625 0.1875,0.078125 0.28125,0.078125 C 1.15625,-0.015625 1.28125,-0.1875 1.375,-0.390625 c 0.296875,0.25 0.75,0.484375 1.171875,0.484375 1.015625,0 2.140625,-0.71875 2.140625,-2.40625 0,-1.21875 -0.859375,-2.0625 -1.828125,-2.0625 -0.484375,0 -0.90625,0.125 -1.25,0.5 z m 0,0"
               style="stroke:none"
               inkscape:connector-curvature="0" />
          </symbol>
          <symbol
             id="textext-7cb82493-16"
             overflow="visible"
             style="overflow:visible">
            <path
               id="path5372"
               d=""
               style="stroke:none"
               inkscape:connector-curvature="0" />
          </symbol>
          <symbol
             id="textext-7cb82493-17"
             overflow="visible"
             style="overflow:visible">
            <path
               id="path5375"
               d="M 7.53125,-5.765625 C 7.640625,-6.15625 7.8125,-6.46875 8.609375,-6.5 c 0.046875,0 0.171875,-0.015625 0.171875,-0.203125 0,0 0,-0.109375 -0.125,-0.109375 -0.328125,0 -0.6875,0.03125 -1.015625,0.03125 -0.328125,0 -0.6875,-0.03125 -1.015625,-0.03125 -0.0625,0 -0.171875,0 -0.171875,0.203125 C 6.453125,-6.5 6.546875,-6.5 6.625,-6.5 c 0.578125,0.015625 0.6875,0.21875 0.6875,0.4375 0,0.03125 -0.03125,0.1875 -0.03125,0.203125 l -1.125,4.4375 L 3.953125,-6.625 C 3.875,-6.796875 3.875,-6.8125 3.640625,-6.8125 l -1.34375,0 c -0.1875,0 -0.28125,0 -0.28125,0.203125 0,0.109375 0.09375,0.109375 0.28125,0.109375 0.046875,0 0.671875,0 0.671875,0.09375 L 1.640625,-1.0625 c -0.109375,0.40625 -0.28125,0.71875 -1.078125,0.75 -0.0625,0 -0.171875,0.015625 -0.171875,0.203125 0,0.0625 0.046875,0.109375 0.125,0.109375 0.328125,0 0.671875,-0.03125 1,-0.03125 C 1.859375,-0.03125 2.21875,0 2.546875,0 2.59375,0 2.71875,0 2.71875,-0.203125 2.71875,-0.296875 2.625,-0.3125 2.515625,-0.3125 1.9375,-0.328125 1.859375,-0.546875 1.859375,-0.75 c 0,-0.0625 0.015625,-0.125 0.046875,-0.234375 l 1.3125,-5.25 C 3.265625,-6.1875 3.265625,-6.15625 3.3125,-6.0625 l 2.484375,5.875 C 5.859375,-0.015625 5.890625,0 5.984375,0 6.09375,0 6.09375,-0.03125 6.140625,-0.203125 Z m 0,0"
               style="stroke:none"
               inkscape:connector-curvature="0" />
          </symbol>
        </g>
      </defs>
      <g
         id="textext-7cb82493-18">
        <g
           id="g5378"
           style="fill:#000000;fill-opacity:1">
          <use
             id="use5380"
             y="118.824"
             x="90"
             xlink:href="#textext-7cb82493-1"
             width="100%"
             height="100%" />
          <use
             id="use5382"
             y="118.824"
             x="94.792007"
             xlink:href="#textext-7cb82493-2"
             width="100%"
             height="100%" />
          <use
             id="use5384"
             y="118.824"
             x="100.00245"
             xlink:href="#textext-7cb82493-2"
             width="100%"
             height="100%" />
          <use
             id="use5386"
             y="118.824"
             x="105.21289"
             xlink:href="#textext-7cb82493-3"
             width="100%"
             height="100%" />
        </g>
        <g
           id="g5388"
           style="fill:#000000;fill-opacity:1">
          <use
             id="use5390"
             y="118.824"
             x="108.66991"
             xlink:href="#textext-7cb82493-4"
             width="100%"
             height="100%" />
        </g>
        <g
           id="g5392"
           style="fill:#000000;fill-opacity:1">
          <use
             id="use5394"
             y="118.824"
             x="113.58147"
             xlink:href="#textext-7cb82493-5"
             width="100%"
             height="100%" />
          <use
             id="use5396"
             y="118.824"
             x="118.11446"
             xlink:href="#textext-7cb82493-6"
             width="100%"
             height="100%" />
          <use
             id="use5398"
             y="118.824"
             x="120.70473"
             xlink:href="#textext-7cb82493-7"
             width="100%"
             height="100%" />
          <use
             id="use5400"
             y="118.824"
             x="128.74455"
             xlink:href="#textext-7cb82493-1"
             width="100%"
             height="100%" />
          <use
             id="use5402"
             y="118.824"
             x="133.53656"
             xlink:href="#textext-7cb82493-8"
             width="100%"
             height="100%" />
          <use
             id="use5404"
             y="118.824"
             x="136.92384"
             xlink:href="#textext-7cb82493-9"
             width="100%"
             height="100%" />
          <use
             id="use5406"
             y="118.824"
             x="141.4369"
             xlink:href="#textext-7cb82493-10"
             width="100%"
             height="100%" />
          <use
             id="use5408"
             y="118.824"
             x="143.94748"
             xlink:href="#textext-7cb82493-11"
             width="100%"
             height="100%" />
        </g>
        <g
           id="g5410"
           style="fill:#000000;fill-opacity:1">
          <use
             id="use5412"
             y="118.824"
             x="151.479"
             xlink:href="#textext-7cb82493-17"
             width="100%"
             height="100%" />
        </g>
        <g
           id="g5414"
           style="fill:#000000;fill-opacity:1">
          <use
             id="use5416"
             y="118.824"
             x="160.57001"
             xlink:href="#textext-7cb82493-12"
             width="100%"
             height="100%" />
          <use
             id="use5418"
             y="118.824"
             x="163.88754"
             xlink:href="#textext-7cb82493-3"
             width="100%"
             height="100%" />
        </g>
        <g
           id="g5420"
           style="fill:#000000;fill-opacity:1">
          <use
             id="use5422"
             y="118.824"
             x="167.34457"
             xlink:href="#textext-7cb82493-9"
             width="100%"
             height="100%" />
          <use
             id="use5424"
             y="118.824"
             x="171.85762"
             xlink:href="#textext-7cb82493-2"
             width="100%"
             height="100%" />
          <use
             id="use5426"
             y="118.824"
             x="177.06807"
             xlink:href="#textext-7cb82493-3"
             width="100%"
             height="100%" />
        </g>
        <g
           id="g5428"
           style="fill:#000000;fill-opacity:1">
          <use
             id="use5430"
             y="118.824"
             x="180.52509"
             xlink:href="#textext-7cb82493-9"
             width="100%"
             height="100%" />
          <use
             id="use5432"
             y="118.824"
             x="185.03815"
             xlink:href="#textext-7cb82493-13"
             width="100%"
             height="100%" />
          <use
             id="use5434"
             y="118.824"
             x="188.98334"
             xlink:href="#textext-7cb82493-9"
             width="100%"
             height="100%" />
          <use
             id="use5436"
             y="118.824"
             x="193.4964"
             xlink:href="#textext-7cb82493-14"
             width="100%"
             height="100%" />
          <use
             id="use5438"
             y="118.824"
             x="198.86624"
             xlink:href="#textext-7cb82493-8"
             width="100%"
             height="100%" />
          <use
             id="use5440"
             y="118.824"
             x="202.25352"
             xlink:href="#textext-7cb82493-1"
             width="100%"
             height="100%" />
          <use
             id="use5442"
             y="118.824"
             x="207.04553"
             xlink:href="#textext-7cb82493-15"
             width="100%"
             height="100%" />
          <use
             id="use5444"
             y="118.824"
             x="212.06668"
             xlink:href="#textext-7cb82493-10"
             width="100%"
             height="100%" />
          <use
             id="use5446"
             y="118.824"
             x="214.57726"
             xlink:href="#textext-7cb82493-9"
             width="100%"
             height="100%" />
        </g>
      </g>
    </g>
  </g>
</svg>
